<?xml version="1.0" encoding="UTF-8"?>
<svg id="Layer_2" data-name="Layer 2" xmlns="http://www.w3.org/2000/svg" viewBox="0 0 1000 1000">
  <defs>
    <style>
      .cls-1, .cls-2 {
        stroke-width: 0px;
      }

      .cls-2 {
        fill: #fff;
      }
    </style>
  </defs>
  <path class="cls-2" d="m0,326.99C0,218,0,109.02,0,0h1000v696.01c-3.66-1.57-7.43-2.93-10.97-4.75-15.41-7.89-30.57-16.25-46.15-23.78-19.87-9.6-40.73-14.49-62.97-10.61-14.89,2.59-27.78,9.89-40.78,17.04-15.39,8.46-31.08,15.92-49.31,15.89-14.33-.02-27.38-4.88-40.57-9.54-15.43-5.44-30.87-6.12-46.26.55-22.79,9.87-44.54,6.46-65.46-5.67-1.01-.58-2.52-2.18-2.32-2.67,2.29-5.39,3.27-11.36,8.39-15.45,5.14-4.1,10.4-8.45,14.24-13.7,7.97-10.87,11.99-23.69,15.51-36.58,2.48-9.08,3.9-18.22.87-27.54-.34-1.05.63-2.62,1.19-3.86,2.77-6.15,6.61-12.02,8.23-18.45,4.09-16.31,3.06-33.07,2.26-49.68-.42-8.83-4.42-15.75-12.89-19.92-2.4-1.18-3.71-4.58-6.04-7.65,3.8-.38,5.98-.42,8.07-.84,7.33-1.48,11.68-7.57,10.86-14.98-.66-5.99-5.45-10.28-11.52-10.32-6.56-.04-11.52,4.64-12.3,11.97-.32,3.03-.05,6.13-.05,9.66-4.83-1.27-9.21-2.42-14.38-3.78,1.66-2.16,2.65-3.66,3.84-4.97,9.32-10.22,12.93-22.24,11.66-35.92-1.36-14.59-4.65-28.04-19.1-35.63-1.01-.53-1.94-2.38-1.9-3.58.59-17.56-7.81-30.97-19.77-42.6-2.65-2.58-3.63-4.79-3.24-8.54,1.47-13.89-6.89-27.83-18.5-32.26-2.08-.79-4.29-2.44-5.43-4.31-9.65-15.95-20.74-19.38-36.99-11.13-3.43-1.8-4.2-4.02-2.9-8.05,2.98-9.23-.12-15.8-8.7-20.36-7.27-3.86-14.98-4.18-22.83-2.36-15.36,3.57-22.26,12.26-22.12,27.99.07,7.5-.04,15.05.9,22.46.7,5.5,3.04,10.78,4.49,16.21.43,1.62.86,3.55.39,5.06-2.57,8.22-2.48,16.36-.12,24.59.4,1.38.51,3.54-.28,4.46-6.22,7.3-4.9,15.04-1.94,23.06.64,1.74,1.36,3.97.8,5.54-3.83,10.76-3.48,21.18,1.54,31.48.58,1.2.91,2.95.49,4.15-3.72,10.84-2.8,21.26,2.19,31.5.53,1.08.25,3.5-.56,4.14-6.2,4.84-6.03,10.83-4.15,17.6,2.74,9.85,5.06,19.81,7.64,30.05-2.56.73-4.59,1.7-6.68,1.84-8.09.54-16.19,1.08-24.28,1.12-6.52.04-12.46,3.06-14.15,8.18-1.58,4.8-1.28,12.26,5.79,15.87,2.79,1.42,5.76,2.51,8.44,4.1,3.59,2.15,6.45,5.2,5.63,9.72-.81,4.5-4.42,6.4-8.61,7.22-2.28.45-4.65.58-6.87,1.21-9.43,2.7-12.96,12.08-7.34,20.09,2.27,3.24,5.42,5.84,8.04,8.84,3.01,3.45,7.24,6.56,5.95,11.93-1.37,5.71-6.51,5.93-11.13,6.63-.16.02-.33.06-.49.1-4.4,1.14-8.2,3.09-9.36,7.94-1.24,5.19.2,9.67,4.51,12.86,3.33,2.47,6.96,4.55,10.45,6.81,9.45,6.12,11.33,13.97,4.46,22.76-6.47,8.28-6.34,16.37-1.57,25.06,1.04,1.9,2.3,3.74,2.97,5.77,1.68,5.11,2.01,10.2-2.05,14.51-4.14,4.4-8.13,3.57-10.19-2.05-.69-1.87-1.17-3.82-1.88-5.69-3.24-8.51-12.51-10.59-18-3.31-3.12,4.14-4.99,9.79-5.75,15.01-1.59,10.91,2.77,15.45,13.75,15.93,3.16.14,6.53-.34,9.42.61,2.47.81,4.41,3.26,6.58,4.98-1.76,1.98-3.46,4.04-5.33,5.91-.51.51-1.56.73-2.35.69-9.05-.41-17.27,2.5-25.61,5.58-7.74,2.86-13.6-.24-16.17-8.02-3.37-10.21-3.16-23.16,7.36-31.2,10.63-8.14,10.84-18.43,2.15-28.62-1.94-2.28-4.01-4.5-6.3-6.41-8.56-7.13-20.46-4.48-24.44,5.53-2.72,6.83.71,12.24,4.77,17.35,6.28,7.89,3.99,14.56-5.74,16.76-14.56,3.29-30.67-5.97-35.34-19.97-1.69-5.05-.81-9.24,2.65-12.88,2.04-2.14,4.41-4.14,6.99-5.57,12.23-6.78,24.36-13.53,34.17-23.9,4.38-4.63,8.8-4.57,13.99-.78,4.82,3.51,9.15,7.71,13.65,11.66,4.11,3.62,7.82,7.81,12.32,10.85,6.38,4.32,12.13,1.55,13.59-6.1,1.81-9.45-1.96-16.9-8.82-23.11-3.46-3.13-7.08-6.1-10.33-9.43-5.7-5.84-6.05-10.94-.11-16.46,6.86-6.38,8.33-13.85,7.51-22.63-.66-7.08-1.52-14.35,1.96-21.09,9.06-17.56,8.64-35.36.5-52.9-4.21-9.07-11.24-15.58-22.17-14.98-11.61.64-21.49,5.23-27.09,15.92-4.11,7.85.54,15.57,9.42,16.8,2.63.37,5.31.36,7.95.69,6.99.87,10.65,4.25,12.02,11.13,3.63,18.1-.2,35.28-5.83,52.45-5.21,15.87-15.38,26.58-30.66,32.63-4.46,1.77-9.09,3.33-13.79,4.23-8.82,1.69-15.33,6.39-19.59,14.08-5.11,9.23-11.15,10.53-22.75,7.57-12.44-3.17-14.92-18.27-13.45-28.56.91-6.39,4.84-11.19,11.16-11.9,5.91-.66,12.46-.54,17.99,1.38,10.63,3.7,20.59,3.91,30.25-1.86,7.27-4.35,14.55-8.82,21.2-14.04,12.04-9.46,15.2-24.41,8.82-38.23-7.94-17.2-25.43-21.59-38.3-9.61-8.94,8.32-7.73,17.62,2.96,23.38,2.18,1.18,4.59,2.35,6.14,4.18,1.48,1.75,2.66,4.31,2.75,6.56.17,4.51-4.54,9.56-9.56,10.98-4.96,1.4-9.24.47-12.34-4-1.99-2.87-3.83-5.88-6.03-8.58-6.25-7.67-16.77-8.19-23.63-1.05-2.4,2.49-4.24,5.53-6.24,8.39-6.37,9.09-14.89,8.99-20.7-.5-5.73-9.35-7.27-19.63-5.29-30.32,1.26-6.81,5.18-11.82,11.9-14.26,6.49-2.36,11.07-.24,14.72,5.51,2.42,3.81,5.43,7.76,9.14,10.12,6.44,4.09,12.86,1.15,15.46-6.04,3.51-9.72-.93-26.95-8.68-33.76-3.39-2.98-7-3.67-10.98-1.22-2.97,1.84-5.91,3.73-8.9,5.52-8.97,5.38-17.46,1.37-19.24-9.03-.94-5.53.2-10.55,3.34-15.2,4.64-6.85,8.47-8.57,15.51-4.47,9.29,5.42,17.46,5.49,25.45-1.91.36-.33.84-.54,1.28-.77,7.76-4.19,15.33.15,15,8.96-.17,4.59-1.4,9.15-2.33,13.69-.84,4.15-1.77,8.27,1.43,11.85,2.83,3.15,6.26,5.15,10.65,3.85,5.36-1.59,8.2-5.49,8.98-10.9.57-3.95.68-7.98,1.46-11.89,1.85-9.24,5.61-17.16,15.65-20.07,9.88-2.87,19.76-5.74,29.65-8.57,9-2.57,16.77-1.28,22.47,7,1.98,2.87,4.05,5.87,6.73,7.99,2.74,2.16,6.16,4.32,9.5,4.72,8.89,1.06,15.17-5.13,16.72-15.44,1.49-9.94-2.88-17.39-12.34-19.03-6.81-1.18-13.89-.81-20.85-1.13-4.64-.22-9.32-.13-13.91-.75-3.55-.48-5.46-3.18-5.41-6.77.05-3.7,2.95-4.93,5.87-4.74,6.44.42,12.86,1.3,19.26,2.16,5.24.7,10.46,2.35,15.68,2.33,8.56-.04,12.1-5.15,11.87-13.65-.24-9.42.7-18.87.67-28.31-.03-8.94-.12-17.94-1.19-26.79-.69-5.68-5.99-9.1-11.1-8.88-4.66.2-8.12,3.66-9.61,9.37-1.93,7.39.84,14.08,2.75,20.97,1.54,5.58,3.12,11.23,3.85,16.95.68,5.35-2.18,9.1-7.51,10.11-4.69.89-9.56.9-14.36,1.06-3.49.11-6.99-.26-10.49-.26-10.75.03-19.15,4.03-25.04,13.55-5.96,9.65-12.83,18.73-22.61,25.01-10.26,6.59-19.3,5.74-28.06-2.62-3.8-3.63-8.37-5.41-13.25-3.86-5.31,1.69-10.15,4.79-15.39,6.74-4.56,1.7-9.37,3.59-14.11,3.71-7.02.17-13.29-7.96-12.52-14.76.76-6.6,6.6-10.54,14.43-9.53,3.96.51,7.87,1.37,11.8,2.1,7.25,1.33,14.51,2.53,21.55-.92,5.62-2.76,7.64-8.65,4.8-13.8-3.05-5.53-7.5-6.37-13.38-2.52-6.73,4.41-14.46,3.58-19.97-2.15-4.69-4.87-5.31-9.43-2.01-14.9,3.37-5.58,8.56-8.1,14.45-5.25,6.31,3.06,12.19,7.25,17.7,11.65,4.91,3.93,10.08,5.08,14.8.91,2.59-2.29,4.28-5.76,5.86-8.95,1.68-3.4,2.34-7.33,4.24-10.57.94-1.6,3.9-3.25,5.5-2.89,1.63.37,3.88,3.22,3.82,4.91-.35,9.97-1.6,19.74-11.6,25.45-2.59,1.48-5.22,3.02-7.42,4.99-4.35,3.88-4.95,9.56-1.93,14.49,2.66,4.34,7.82,6.15,13.16,3.7,3.34-1.54,6.71-3.9,8.94-6.77,2.81-3.61,4.69-8.01,6.57-12.25,2.9-6.51,7.34-11.57,14.48-12.44,9.67-1.18,19.46-1.37,29.21-1.81,2.97-.13,5.99.61,8.96.44,4.68-.28,8.56-4.31,8.88-8.7.31-4.19-2.31-8.1-7.05-8.98-4.36-.8-8.92-.81-13.37-.7-5.99.16-11.96,1.06-17.94,1.14-12.7.16-18.07-3.72-22.31-15.5-2.86-7.94-8.21-10.07-15.62-6.02-2.02,1.1-3.63,2.94-5.63,4.1-6.43,3.71-12.62,8.23-19.52,10.62-7.41,2.56-15.53,2.52-22.53-2.38-3.05-2.14-4.78-5.14-3.21-9.09,1.63-4.11,4.91-5.33,8.9-4.56,2.41.46,4.8,1.39,6.99,2.51,5.06,2.59,9.93,2.36,14.76-.4,5.18-2.96,7.76-8.11,6.23-12.34-1.54-4.27-5.86-5.78-12.13-5.44-3.82.21-8.11-.17-11.48-1.77-6.26-2.97-6.38-10.74-.09-13.7,3.11-1.47,8.48-1.82,11.04-.06,7.18,4.91,14.03,10.62,19.89,17.04,7.25,7.95,9.44,9.19,19.55,5.63,5.35-1.88,10.08.58,10.67,6.22,1.07,10.31,7.46,15.57,16.51,18.44,13.18,4.18,31.81-7.32,30.64-22.05-.71-8.94-.15-17.99-.05-26.99.02-1.97.34-3.98.81-5.9.79-3.26,2.27-6.37,6.29-5.63,3.6.66,5.05,3.61,4.92,7.13-.13,3.49-.6,6.97-.73,10.47-.19,4.84,2.19,7.86,6.54,8.58,4.76.79,7.74-1.35,9.08-5.79.57-1.88.81-3.9.95-5.88.39-5.64.45-11.32.99-16.95,1.01-10.49-3.11-14.5-13.64-12.96-.99.14-1.96.4-2.95.55-5.57.88-9.83-.85-9.63-4.28.31-5.29,4.67-5.26,8.52-5.51,8.48-.54,11.54-3.28,12.51-11.81.34-2.95-.21-6,.11-8.95.42-3.85.99-7.75,2.08-11.45.88-3,2.8-5.67,3.94-8.61,2.02-5.21,3.23-10.56.84-16.01-1.5-3.41-3.92-6.11-7.9-5.76-3.86.33-6.32,2.93-6.9,6.8-.64,4.27-.67,8.64-1.53,12.86-.37,1.78-2.2,3.26-3.37,4.87-1.2-1.7-3.25-3.31-3.44-5.11-.43-4.1.19-8.3.14-12.46-.08-6.43-5.34-9.94-11.33-7.71-7.02,2.61-9.98,8.86-7.2,16.18,1.82,4.81,4.14,9.46,6.47,14.06,5.19,10.22,5.44,19.74-3.43,28.22-.59.57-1.02,1.31-1.51,1.99-3.59,5.05-4.54,10.09-1.02,15.79,1.15,1.86,1.64,5.06.87,7.03-3.48,8.93-3.4,18.16-3.91,27.5-.29,5.33-2.9,10.77-5.46,15.64-1.71,3.27-5.27,6.44-9.47,4.8-4.42-1.73-5.2-6.24-4.83-10.59.19-2.28.79-4.64,1.73-6.73,1.7-3.78,3.83-7.36,5.72-11.05,2.87-5.59,6.16-11.02,8.37-16.86,1.51-3.99.89-8.46-3.79-10.72-3.54-1.7-8.37.57-11.3,5.18-.97,1.53-1.66,3.26-2.39,4.94-1.64,3.82-2.68,8.03-4.97,11.4-3.23,4.73-7.02,9.22-11.24,13.08-2.74,2.5-6.87,3.23-10.01.07-2.91-2.92-1.4-6.3.26-9.22,2.22-3.9,5-7.48,7.2-11.39,4.53-8.06,11.2-13.68,19.64-16.98,12.62-4.94,20.2-13.79,23.8-26.86,1.85-6.71.87-11.73-3.64-16.94-3.17-3.67-5.57-8.18-7.56-12.65-1.44-3.23-2.61-6.17-6.48-6.71-4.21-.6-7.46,1.05-9.79,4.59-3.07,4.66-2.08,9.39.45,13.69,2.43,4.13,5.59,7.84,8.39,11.76,2.43,3.4,1.34,7.82-2.57,10.81-3.52,2.7-6.73,2.03-8.95-1.48-2.75-4.32-5.25-8.84-7.38-13.49-1.7-3.71-3.52-6.94-8.05-7.07-4.2-.11-7.36,1.93-9.28,5.64-2.1,4.07-1.91,8.06,1.05,11.68,1.37,1.67,3.03,3.1,4.42,4.75,4.2,5,4.42,10.62.95,15.58-4.85,6.93-9.47,14.02-14.39,20.91-1.51,2.11-3.41,4.17-5.59,5.49-1.16.71-3.86.39-4.83-.55-.84-.81-.85-3.49-.14-4.72,1.66-2.85,3.99-5.3,6.02-7.94,2.02-2.64,4.25-5.16,5.95-7.99,2.81-4.68,1.71-9.84-2.26-12.35-3.67-2.32-7.63-1.05-10.94,3.72-3.42,4.93-6.85,9.86-9.97,14.97-1.79,2.93-4.05,4.01-7.38,3.99-17-.09-34-.1-51,.01-3.94.02-6.19-1.22-6.88-5.41-.82-4.94-4.33-6.5-9.1-6.62-5.01-.13-8.93,1.53-9.7,6.54-.79,5.11-3.74,5.5-7.74,5.49-24.33-.06-48.66-.04-72.99-.05-7.04,0-8.58,1.11-10.4,7.96-.85,3.21-3.08,4.54-5.95,3.92-2.47-.53-6.08-1.5-6.84-3.28-3.62-8.47-3.36-8.62-12.6-8.62-28.5,0-57-.03-85.49.05-4.16.01-6.83-.69-7.57-5.68-.71-4.81-4.6-6.36-9.35-6.34-4.71.02-8.42,1.38-9.27,6.37-.75,4.39-3.1,5.76-7.24,5.67-6.83-.16-13.66-.06-20.5,0-3.31.03-5.17-1.3-5.97-4.69-1.39-5.9-3.32-7.23-9.5-7.23-2.99,0-5.98.2-8.97.31Z"/>
  <path class="cls-2" d="m1000,699.01v300.99H0V329.99c2.83-.05,5.67.09,8.48-.18,4.2-.41,6.57,1.06,7.25,5.43.74,4.77,4.26,6.55,8.65,6.64,7,.14,14,.13,21,.01,6.07-.1,8.33-1.92,9.59-7.91.71-3.38,2.78-4.19,5.76-4.16,3.04.03,6.02-.26,7.19,3.69,2.16,7.33,3.71,8.4,11.15,8.41,28.67,0,57.33.07,86-.06,4.5-.02,7.46.48,8.31,5.98.81,5.21,5.44,6.16,10.11,5.93,4.13-.21,7.93-1.63,8.45-6.13.57-4.96,3.13-5.8,7.4-5.78,24,.12,48,.05,72,.07,8.31,0,9.58-.66,12.19-8.6,1.34-4.09,4.31-3.42,7.24-3.49,2.77-.06,4.68.73,5.37,3.91,1.38,6.33,3.84,8.14,10.48,8.15,16.67.04,33.33-.05,50,.07,4.84.03,8.13-1.9,10.62-6.02,3.1-5.12,6.36-10.18,10.05-14.87,1.23-1.56,4.39-3.07,6-2.55,3.05,1,3.7,4.27,2.22,7.13-1.44,2.77-3.42,5.29-5.31,7.8-2.31,3.05-5.38,5.69-6.97,9.05-1.08,2.29-1.11,5.98.02,8.2,1.55,3.04,5.26,3.72,8.26,1.76,2.7-1.76,5.26-4.06,7.16-6.65,4.88-6.69,9.26-13.76,14.03-20.54,4.77-6.77,4.59-13.57-.9-20-1.19-1.39-3.16-2.43-3.68-4-.92-2.77-1.93-6.11-1.15-8.67.59-1.91,4.13-4.29,6.03-4.04,2.12.28,4.32,3.03,5.69,5.2,2.63,4.18,4.31,8.99,7.09,13.05,4.18,6.11,9.52,6.97,14.34,2.78,4.05-3.52,7.55-10.45,1.87-16.11-2.9-2.89-5.27-6.46-7.25-10.07-1.2-2.2-2.24-5.46-1.46-7.54.95-2.55,3.6-4.86,6.09-6.24.87-.48,4.68,1.82,5.03,3.33,1.53,6.65,5.33,11.74,9.83,16.46,2.81,2.95,3.38,6.3,2.55,10.14-2.85,13.05-9.67,22.65-22.68,27.41-15.38,5.62-22.38,19.22-29.32,32.45-1.32,2.51-.29,7.4,1.41,10.06,2.13,3.32,6.49,3.88,10.27,1.87,3.03-1.61,6.72-3.12,8.47-5.76,4.54-6.85,8.08-14.35,12.19-21.49,1.62-2.82,3.29-5.85,5.69-7.91,2.91-2.5,6.15-.87,6.11,2.98-.03,3.04-.57,6.36-1.91,9.04-2.82,5.64-6.87,10.7-9.36,16.45-2.26,5.2-3.84,10.93-4.37,16.55-.41,4.29,1.96,8.58,6.41,10.36,4.2,1.68,7.79-.47,10.82-3.3,6.54-6.09,9-13.91,8.55-22.57-.41-7.92.83-15.43,3.05-23.03.95-3.26.22-7.46-.97-10.8-1.45-4.1-1.88-7.71.6-11.33,2.26-3.29,4.85-6.37,7.01-9.72,2.88-4.48,4.43-9.25,2.16-14.6-2.77-6.56-5.42-13.17-8.14-19.75-.76-1.84-2.42-3.76-2.21-5.46.37-3.05,1.15-6.6,3.09-8.73,1.48-1.62,5.94-2.66,7.4-1.62,1.84,1.31,2.41,4.96,2.73,7.69.41,3.57-.11,7.24.05,10.86.16,3.82,2.24,6.45,6.14,6.52,3.7.07,5.67-2.52,6.24-5.98.64-3.93,1.16-7.89,1.52-11.85.29-3.18.89-6.59,4.59-6.6,4.06,0,5.79,3.77,5.46,7.07-.48,4.84-1.63,9.79-3.51,14.27-2.57,6.11-5.23,11.69-4.51,18.89,1.33,13.49-.22,14.66-13.59,16.49-3.97.54-6.91,3.02-7.45,6.98-.55,4.02,1.73,7.09,5.64,8.25,2.15.64,4.58.47,6.88.39,2.49-.08,4.97-.73,7.44-.68,5.3.09,7.25,2.83,6.68,8.11-.64,5.93-.87,11.9-1.31,17.85-.13,1.81-.17,3.66-.59,5.41-.67,2.85-2.26,4.97-5.6,4.29-3.18-.65-4.95-2.7-4.63-6.06.24-2.48.7-4.94,1.14-7.39,1.11-6.19-2.47-12.16-7.86-13.01-4.83-.76-9.18,3.17-9.6,9.82-.62,9.95-.98,19.97-.67,29.93.31,9.87-4.22,16.03-12.75,19.95-13.23,6.09-28.48-3.39-28.57-15.17-.06-6.99-8.43-11.45-14.91-7.9-6.35,3.47-9.4,2.05-14.14-3.41-1.42-1.63-2.63-3.45-4.1-5.03-6.72-7.23-13.8-14.05-23.78-16.51-4.71-1.16-10.73,2.11-13.34,6.7-2.49,4.37-1.77,8.49,1.46,11.91,3.82,4.05,8.73,5.91,14.42,5.23,2.14-.26,4.32-.75,6.43-.56,4.57.41,6.89,4.92,3.82,8.24-2.37,2.56-6.09,5-9.39,5.27-3.64.3-7.51-1.85-11.24-3.07-6.82-2.24-12.26-.4-14.87,5.14-3.16,6.7,1.07,13.83,9.87,16.25,15.1,4.16,27.58-1.48,39.09-10.66,2.32-1.85,4.63-3.87,7.28-5.13,4.89-2.33,8.27-.96,9.46,4.28,3.53,15.53,16.85,19.41,30.41,18.39,8.11-.61,16.27-.64,24.41-.89,3.65-.11,5.8,2.07,6.02,5.35.23,3.53-2.03,5.94-5.54,6.61-1.76.34-3.65.1-5.48,0-6.3-.31-12.6-1.03-18.89-.94-15.16.2-27.93,4.46-33.1,20.82-.79,2.49-2.05,5.12-3.86,6.91-2.63,2.59-5.76,4.88-9.05,6.55-3.41,1.73-6.59.31-8.56-2.94-2.08-3.44-2.3-7.09.83-10.02,2.03-1.9,4.5-3.4,6.93-4.81,11.06-6.42,13.52-17.06,13.81-28.56.1-3.93-2.16-7-6.31-7.92-3.96-.88-7,.92-8.69,4.3-1.91,3.83-3.42,7.89-4.76,11.97-3.17,9.62-9.87,11.55-17.05,4.6-5.86-5.67-12.44-10.03-20.52-11.62-9.63-1.89-19.56,9.14-16.85,18.55,3.46,12,17.56,17.09,28.13,10.15,4.83-3.18,9.58-1.67,9.74,3.64.07,2.39-1.93,5.77-4.02,7.12-5.7,3.68-12.18,2.25-18.45,1.2-5.39-.9-10.76-2.16-16.19-2.49-10.99-.68-18.09,10.25-13.35,20.1,5.28,10.96,16.91,13.85,28.41,7.17,4.15-2.41,8.3-4.9,12.71-6.75,4.53-1.9,9.41-1.84,13.01,2.03,12.02,12.93,28.1,9,37.98-1.07,6.6-6.73,12.71-14.09,18.05-21.86,5.2-7.57,11.85-11.38,20.71-11.73,4.15-.16,8.32.28,12.47.23,4.47-.05,9.02.11,13.39-.66,8.74-1.55,13.04-8.59,10.91-17.39-1.36-5.62-3.42-11.09-4.57-16.75-1.07-5.25-1.83-10.67-1.81-16.01.02-4.02,2.26-7.49,7-7.61,4.92-.13,7.53,3.38,7.93,7.48.77,8.05.83,16.19.82,24.29-.02,9.9-.77,19.81-.53,29.7.14,5.93-2.41,10.13-8.66,10.17-4.56.03-9.18-1.01-13.69-1.97-8.1-1.72-16.12-4.19-24.51-1.98-4.8,1.27-6.63,4.56-5.52,9.44,1.25,5.5,6.12,8.56,13.99,8.62,7.5.05,15-.23,22.5-.01,14.93.44,20.49,11.01,12.74,23.94-4.11,6.86-12.07,7.94-17.66,2.23-2.44-2.49-4.45-5.39-6.68-8.08-8.51-10.25-14.43-11.91-27.17-8.01-8.52,2.61-17.09,5.06-25.68,7.38-11.97,3.24-18.1,10-19.9,22.03-.78,5.23-1.56,10.48-2.86,15.6-1.29,5.07-5.18,7.21-9.8,6.11-4.08-.97-6.12-4.9-5.11-9.93.85-4.23,2-8.41,2.54-12.68.75-5.96.35-11.78-5.27-15.62-5.27-3.61-10.92-2.84-15.23,1-7.7,6.86-14.98,6.91-23.24,1.31-4.76-3.24-10.17-2.77-14.22,1.24-8.38,8.29-12.23,19.63-3.58,30.21,4.06,4.97,9.77,8.78,16.84,3.45,3.03-2.28,6.51-3.95,9.79-5.88,4.19-2.45,7.87-1.38,10.51,2.28,6.07,8.44,8.75,17.87,6.54,28.22-1.22,5.71-6.43,8.21-11.49,5.11-3.06-1.87-5.05-5.45-7.66-8.12-2.69-2.75-5.11-6.35-8.43-7.77-8.26-3.54-19.32,2.14-22.68,11.91-5.12,14.86-2.53,28.77,7.43,41.09,2.67,3.3,6.25,4.74,10.59,4.36,7.25-.63,11.5-5.4,14-11.32,4.54-10.76,19.79-11.25,25.11-.83,1.12,2.2,2.66,4.23,4.24,6.16,3.93,4.81,8.75,6.74,15,4.79,6.07-1.89,11.67-7.91,12.08-13.89.43-6.31-3.68-9.58-8.64-12.19-1.76-.93-3.62-1.74-5.2-2.92-3.54-2.66-4.99-6.26-3.61-10.57,3.31-10.31,19.45-15.73,28.36-9.44,12.22,8.63,19.12,30.27,4.19,43.89-7.16,6.54-15.87,11.43-24.09,16.73-5.69,3.66-12.27,4.18-18.79,3.2-3.71-.56-7.28-2.09-10.9-3.22-14.42-4.47-33.39.27-30.42,23.07.06.49.03,1,.06,1.5.64,10.65,7.04,19.57,16.08,21.69,13.54,3.18,20.44.43,26.16-10.09,3.47-6.37,9.1-9.91,16.06-11.66,4.79-1.2,9.65-2.37,14.22-4.19,11.32-4.52,21.84-10.6,27.56-21.86,9.2-18.12,14.76-37.25,13.06-57.92-1.54-18.73-7.07-22.57-23.07-23.08-7.38-.23-11.32-6.37-7.6-12.74,2.25-3.85,5.81-7.48,9.63-9.78,13.51-8.12,25.3-5.79,32.26,5.5,9.76,15.85,10.52,33.31,2.93,50.13-3.79,8.39-4.95,16.54-3.92,25.13,1.03,8.52-.46,15.45-6.93,21.69-6.69,6.46-6.3,13.53.19,20.19,3.94,4.05,8.75,7.34,12.27,11.69,2.79,3.45,4.94,7.81,6.06,12.11,1,3.81,1.64,8.99-2.94,11.19-4.82,2.32-7.89-1.94-11.04-4.81-6.52-5.93-12.77-12.2-19.61-17.73-6.67-5.39-12.29-4.99-19.01.3-1.83,1.44-3.36,3.26-5.23,4.62-6.27,4.56-12.59,9.06-18.99,13.45-5.32,3.66-11.04,6.78-16.08,10.78-5.03,3.99-5.92,9.63-4.48,15.85,4.81,20.77,28.64,25.79,41.63,21.97,8.2-2.41,13.62-11,6.03-19.44-1.44-1.6-2.66-3.42-3.8-5.25-3.46-5.54-3.08-10.14,1.08-14.53,3.78-3.99,9.45-4.9,14.56-1.71,2.91,1.81,5.5,4.29,7.84,6.83,8.26,8.98,8.12,17.75-1.4,25.24-12.2,9.6-12.17,24.58-7.56,35.63,3.28,7.85,9.49,11.37,17.65,8.86,9.52-2.93,18.98-5.52,28.97-6.41,4.02-.36,7.47-3,7.9-7.73.45-5.01-2.31-8.11-6.88-8.94-4.85-.88-9.95-.44-14.78-1.39-2.61-.51-5.93-2.12-7.12-4.25-2.82-5.06.13-17.48,4.28-21.62,4.55-4.53,10.1-3.48,12.67,2.46.79,1.83,1.02,3.99,2.13,5.57,1.79,2.54,3.68,5.89,6.26,6.79,4.03,1.41,7.79-.98,10.16-4.61,4.16-6.38,3.86-13,.01-19.3-5.64-9.25-6.57-17.61.83-26.9,6.65-8.36,4.06-17.95-4.88-24.03-3.16-2.15-6.39-4.19-9.68-6.13-4.36-2.58-6.46-6.28-5.36-11.27,1.12-5.09,5.66-5.72,9.71-6.34,4.72-.72,8.73-2.13,10.69-6.89,2.05-5,.07-9.12-3.16-12.77-3.3-3.73-7.1-7.06-10.16-10.96-5.45-6.94-2.98-14.14,5.45-16.57,1.89-.55,3.91-.64,5.86-.96,5.29-.87,9.53-3.5,11.25-8.62,1.62-4.8-.68-8.98-4.46-11.83-2.85-2.15-6.29-3.57-9.57-5.08-4.65-2.15-7.27-6.62-6.51-11.56.67-4.41,4.4-7.69,9.47-7.95,11.86-.59,23.72-1.04,36.34-1.57.98,2,1.37,4.7-.58,8.43-5.68,10.87-7.13,22.95-2.87,34.24,2.46,6.54,1.31,10.46-2.51,14.95-.11.13-.21.26-.3.4-9.07,14.03-13.06,28.55-4.98,44.6.88,1.75.03,4.53-.43,6.75-.63,3.04-2.18,5.96-2.42,9.01-.6,7.59.08,15.35-1.15,22.81-1.79,10.85-1.89,21.33,1.17,31.95,1.82,6.3,5.62,10.19,11.79,11.44,4.03.82,8.27.51,12.4.96,8.39.91,16.77,1.99,23.97,2.85,0,5.69.07,10.39-.05,15.08-.03,1-.47,2.57-1.16,2.88-5.82,2.62-11.74,5-17.31,7.32-.75-.79-.94-.9-.96-1.03-.21-1.12-.44-2.25-.59-3.38-1.13-8.49-5.89-13.73-14.06-16.22-7.79-2.37-15.68,1.37-17.47,8.57-2.13,8.6,2.64,16.1,11.38,16.96,5.81.57,11.73.11,17.87.11,2.86,7.32,5.57,9.17,14.31,8.92,2.13-.06,4.51-.14,6.32-1.08,9.1-4.71,18.46-9.09,26.95-14.76,11.94-7.97,22.7-17.49,35.62-24.28,6.86-3.61,11.89-10.81,17.44-16.68,2.19-2.32,3.09-7.09,5.4-7.71,2.45-.66,5.9,2.21,8.85,3.68,19.93,9.96,40.13,11.28,60.93,2.6,7.82-3.26,16.13-6.15,24.7-4.58,9.87,1.81,19.76,4.12,29.25,7.35,18.04,6.13,36.22,9.66,54.51,2.56,13.24-5.14,26.14-11.37,38.63-18.14,22.72-12.32,45.99-15.88,71.04-8.32,16.89,5.09,31.96,13.74,47.46,21.69,10.15,5.21,20.61,9.82,30.93,14.7Z"/>
  <path class="cls-1" d="m1000,699.01c-10.32-4.88-20.78-9.49-30.93-14.7-15.5-7.95-30.58-16.6-47.46-21.69-25.06-7.55-48.33-3.99-71.04,8.32-12.49,6.77-25.4,13.01-38.63,18.14-18.28,7.1-36.47,3.57-54.51-2.56-9.49-3.23-19.38-5.53-29.25-7.35-8.57-1.57-16.88,1.32-24.7,4.58-20.8,8.68-41,7.35-60.93-2.6-2.94-1.47-6.4-4.33-8.85-3.68-2.3.62-3.21,5.4-5.4,7.71-5.55,5.87-10.59,13.08-17.44,16.68-12.92,6.79-23.69,16.31-35.62,24.28-8.49,5.67-17.85,10.05-26.95,14.76-1.81.94-4.19,1.02-6.32,1.08-8.73.26-11.45-1.6-14.31-8.92-6.15,0-12.06.46-17.87-.11-8.75-.86-13.51-8.37-11.38-16.96,1.78-7.2,9.68-10.95,17.47-8.57,8.17,2.49,12.93,7.72,14.06,16.22.15,1.13.37,2.26.59,3.38.03.14.22.24.96,1.03,5.57-2.32,11.49-4.7,17.31-7.32.7-.31,1.14-1.88,1.16-2.88.12-4.69.05-9.38.05-15.08-7.2-.87-15.57-1.94-23.97-2.85-4.12-.45-8.36-.14-12.4-.96-6.17-1.25-9.97-5.13-11.79-11.44-3.06-10.62-2.96-21.11-1.17-31.95,1.23-7.46.55-15.22,1.15-22.81.24-3.04,1.79-5.96,2.42-9.01.46-2.22,1.31-5,.43-6.75-8.08-16.04-4.09-30.57,4.98-44.6.09-.14.19-.28.3-.4,3.82-4.49,4.98-8.42,2.51-14.95-4.26-11.29-2.8-23.37,2.87-34.24,1.95-3.73,1.56-6.43.58-8.43-12.62.54-24.48.98-36.34,1.57-5.07.25-8.8,3.54-9.47,7.95-.75,4.94,1.86,9.41,6.51,11.56,3.28,1.52,6.72,2.93,9.57,5.08,3.78,2.85,6.08,7.03,4.46,11.83-1.72,5.12-5.96,7.75-11.25,8.62-1.96.32-3.97.42-5.86.96-8.44,2.44-10.91,9.63-5.45,16.57,3.07,3.91,6.86,7.23,10.16,10.96,3.23,3.65,5.21,7.77,3.16,12.77-1.95,4.76-5.97,6.17-10.69,6.89-4.04.62-8.59,1.24-9.71,6.34-1.09,5,1,8.69,5.36,11.27,3.29,1.94,6.52,3.98,9.68,6.13,8.95,6.09,11.53,15.68,4.88,24.03-7.4,9.29-6.47,17.66-.83,26.9,3.85,6.3,4.14,12.92-.01,19.3-2.37,3.64-6.14,6.02-10.16,4.61-2.58-.9-4.47-4.25-6.26-6.79-1.11-1.57-1.33-3.74-2.13-5.57-2.57-5.94-8.12-6.99-12.67-2.46-4.16,4.14-7.11,16.56-4.28,21.62,1.19,2.13,4.51,3.74,7.12,4.25,4.83.94,9.93.5,14.78,1.39,4.56.83,7.33,3.94,6.88,8.94-.43,4.73-3.88,7.37-7.9,7.73-9.98.89-19.44,3.48-28.97,6.41-8.16,2.51-14.38-1.01-17.65-8.86-4.61-11.05-4.64-26.02,7.56-35.63,9.52-7.49,9.66-16.27,1.4-25.24-2.34-2.54-4.93-5.02-7.84-6.83-5.11-3.18-10.78-2.28-14.56,1.71-4.16,4.39-4.54,8.99-1.08,14.53,1.14,1.83,2.37,3.65,3.8,5.25,7.59,8.43,2.17,17.02-6.03,19.44-12.99,3.82-36.82-1.2-41.63-21.97-1.44-6.22-.55-11.86,4.48-15.85,5.04-3.99,10.76-7.12,16.08-10.78,6.39-4.39,12.71-8.89,18.99-13.45,1.87-1.36,3.41-3.18,5.23-4.62,6.72-5.29,12.34-5.69,19.01-.3,6.84,5.53,13.09,11.8,19.61,17.73,3.16,2.87,6.22,7.12,11.04,4.81,4.58-2.2,3.93-7.38,2.94-11.19-1.13-4.3-3.27-8.66-6.06-12.11-3.52-4.35-8.33-7.64-12.27-11.69-6.48-6.66-6.88-13.73-.19-20.19,6.47-6.24,7.96-13.16,6.93-21.69-1.03-8.59.13-16.74,3.92-25.13,7.6-16.82,6.84-34.29-2.93-50.13-6.96-11.29-18.74-13.62-32.26-5.5-3.83,2.3-7.38,5.92-9.63,9.78-3.72,6.36.21,12.5,7.6,12.74,16,.51,21.53,4.34,23.07,23.08,1.7,20.68-3.86,39.8-13.06,57.92-5.72,11.26-16.24,17.34-27.56,21.86-4.57,1.83-9.43,2.99-14.22,4.19-6.96,1.75-12.6,5.28-16.06,11.66-5.72,10.52-12.62,13.27-26.16,10.09-9.04-2.12-15.44-11.04-16.08-21.69-.03-.5,0-1-.06-1.5-2.97-22.81,16-27.54,30.42-23.07,3.62,1.12,7.19,2.66,10.9,3.22,6.52.98,13.11.47,18.79-3.2,8.22-5.3,16.93-10.19,24.09-16.73,14.92-13.62,8.03-35.26-4.19-43.89-8.91-6.29-25.05-.86-28.36,9.44-1.38,4.31.07,7.91,3.61,10.57,1.58,1.18,3.44,1.99,5.2,2.92,4.95,2.61,9.07,5.87,8.64,12.19-.41,5.98-6.02,11.99-12.08,13.89-6.25,1.95-11.07.02-15-4.79-1.57-1.92-3.11-3.95-4.24-6.16-5.32-10.42-20.57-9.93-25.11.83-2.5,5.92-6.75,10.68-14,11.32-4.34.38-7.92-1.06-10.59-4.36-9.96-12.32-12.55-26.23-7.43-41.09,3.36-9.77,14.42-15.45,22.68-11.91,3.32,1.42,5.74,5.03,8.43,7.77,2.61,2.67,4.6,6.25,7.66,8.12,5.06,3.1,10.28.6,11.49-5.11,2.21-10.35-.48-19.77-6.54-28.22-2.63-3.67-6.32-4.74-10.51-2.28-3.29,1.92-6.77,3.6-9.79,5.88-7.08,5.32-12.78,1.51-16.84-3.45-8.66-10.58-4.8-21.92,3.58-30.21,4.06-4.01,9.46-4.48,14.22-1.24,8.26,5.61,15.54,5.55,23.24-1.31,4.31-3.84,9.96-4.61,15.23-1,5.61,3.84,6.02,9.67,5.27,15.62-.54,4.26-1.69,8.45-2.54,12.68-1.01,5.02,1.03,8.95,5.11,9.93,4.63,1.1,8.51-1.04,9.8-6.11,1.3-5.11,2.08-10.37,2.86-15.6,1.8-12.03,7.93-18.79,19.9-22.03,8.6-2.33,17.17-4.77,25.68-7.38,12.74-3.91,18.67-2.24,27.17,8.01,2.23,2.69,4.25,5.59,6.68,8.08,5.59,5.72,13.55,4.63,17.66-2.23,7.76-12.93,2.2-23.5-12.74-23.94-7.49-.22-15,.06-22.5.01-7.87-.06-12.74-3.12-13.99-8.62-1.11-4.88.72-8.17,5.52-9.44,8.38-2.21,16.4.25,24.51,1.98,4.51.96,9.13,2,13.69,1.97,6.25-.04,8.8-4.24,8.66-10.17-.24-9.89.51-19.8.53-29.7.02-8.1-.04-16.24-.82-24.29-.39-4.1-3.01-7.6-7.93-7.48-4.74.12-6.99,3.59-7,7.61-.02,5.34.74,10.76,1.81,16.01,1.15,5.66,3.21,11.12,4.57,16.75,2.12,8.8-2.18,15.84-10.91,17.39-4.37.77-8.92.61-13.39.66-4.16.05-8.33-.39-12.47-.23-8.86.34-15.51,4.16-20.71,11.73-5.33,7.76-11.45,15.13-18.05,21.86-9.88,10.07-25.96,14-37.98,1.07-3.59-3.87-8.47-3.93-13.01-2.03-4.41,1.84-8.56,4.34-12.71,6.75-11.5,6.68-23.13,3.78-28.41-7.17-4.74-9.85,2.35-20.77,13.35-20.1,5.43.33,10.8,1.59,16.19,2.49,6.27,1.05,12.75,2.47,18.45-1.2,2.09-1.34,4.09-4.73,4.02-7.12-.16-5.31-4.91-6.82-9.74-3.64-10.56,6.94-24.67,1.85-28.13-10.15-2.71-9.41,7.22-20.45,16.85-18.55,8.08,1.59,14.66,5.95,20.52,11.62,7.18,6.95,13.88,5.02,17.05-4.6,1.34-4.07,2.85-8.14,4.76-11.97,1.69-3.39,4.73-5.18,8.69-4.3,4.15.92,6.41,3.99,6.31,7.92-.29,11.5-2.76,22.14-13.81,28.56-2.43,1.41-4.9,2.91-6.93,4.81-3.13,2.93-2.9,6.58-.83,10.02,1.96,3.25,5.14,4.67,8.56,2.94,3.29-1.67,6.42-3.96,9.05-6.55,1.81-1.79,3.07-4.42,3.86-6.91,5.17-16.36,17.94-20.62,33.1-20.82,6.29-.08,12.59.63,18.89.94,1.83.09,3.72.33,5.48,0,3.51-.68,5.77-3.09,5.54-6.61-.21-3.28-2.37-5.46-6.02-5.35-8.14.25-16.3.28-24.41.89-13.56,1.02-26.88-2.86-30.41-18.39-1.19-5.24-4.57-6.61-9.46-4.28-2.64,1.26-4.95,3.28-7.28,5.13-11.51,9.18-24,14.81-39.09,10.66-8.8-2.42-13.03-9.55-9.87-16.25,2.61-5.54,8.05-7.38,14.87-5.14,3.73,1.22,7.6,3.38,11.24,3.07,3.3-.27,7.02-2.71,9.39-5.27,3.07-3.32.75-7.83-3.82-8.24-2.11-.19-4.29.3-6.43.56-5.7.68-10.6-1.18-14.42-5.23-3.23-3.41-3.95-7.54-1.46-11.91,2.61-4.58,8.63-7.86,13.34-6.7,9.99,2.46,17.06,9.28,23.78,16.51,1.47,1.58,2.68,3.4,4.1,5.03,4.74,5.46,7.8,6.88,14.14,3.41,6.48-3.55,14.85.9,14.91,7.9.1,11.79,15.34,21.26,28.57,15.17,8.52-3.92,13.05-10.08,12.75-19.95-.31-9.96.05-19.97.67-29.93.42-6.65,4.77-10.58,9.6-9.82,5.39.85,8.97,6.82,7.86,13.01-.44,2.45-.9,4.91-1.14,7.39-.32,3.36,1.45,5.41,4.63,6.06,3.34.68,4.93-1.44,5.6-4.29.42-1.75.45-3.6.59-5.41.44-5.95.67-11.92,1.31-17.85.57-5.28-1.38-8.01-6.68-8.11-2.48-.04-4.96.6-7.44.68-2.3.08-4.73.25-6.88-.39-3.9-1.16-6.18-4.23-5.64-8.25.54-3.95,3.48-6.44,7.45-6.98,13.37-1.83,14.92-3,13.59-16.49-.71-7.2,1.95-12.78,4.51-18.89,1.88-4.48,3.03-9.43,3.51-14.27.33-3.3-1.4-7.07-5.46-7.07-3.7,0-4.3,3.41-4.59,6.6-.36,3.96-.88,7.92-1.52,11.85-.57,3.47-2.54,6.06-6.24,5.98-3.91-.08-5.98-2.7-6.14-6.52-.15-3.62.37-7.29-.05-10.86-.32-2.73-.89-6.39-2.73-7.69-1.47-1.04-5.92,0-7.4,1.62-1.94,2.13-2.72,5.68-3.09,8.73-.21,1.7,1.45,3.62,2.21,5.46,2.72,6.58,5.37,13.19,8.14,19.75,2.26,5.35.72,10.12-2.16,14.6-2.16,3.36-4.75,6.43-7.01,9.72-2.48,3.62-2.06,7.23-.6,11.33,1.18,3.34,1.92,7.53.97,10.8-2.22,7.6-3.46,15.1-3.05,23.03.45,8.66-2.01,16.47-8.55,22.57-3.03,2.83-6.62,4.98-10.82,3.3-4.45-1.78-6.82-6.07-6.41-10.36.53-5.62,2.12-11.35,4.37-16.55,2.5-5.75,6.55-10.81,9.36-16.45,1.34-2.68,1.89-6,1.91-9.04.03-3.85-3.2-5.48-6.11-2.98-2.4,2.06-4.07,5.09-5.69,7.91-4.11,7.14-7.66,14.64-12.19,21.49-1.75,2.64-5.44,4.15-8.47,5.76-3.78,2.01-8.14,1.45-10.27-1.87-1.71-2.66-2.73-7.55-1.41-10.06,6.94-13.23,13.94-26.83,29.32-32.45,13.01-4.75,19.83-14.36,22.68-27.41.84-3.84.26-7.19-2.55-10.14-4.5-4.73-8.3-9.81-9.83-16.46-.35-1.52-4.15-3.82-5.03-3.33-2.49,1.38-5.14,3.69-6.09,6.24-.78,2.08.26,5.33,1.46,7.54,1.97,3.61,4.35,7.18,7.25,10.07,5.68,5.66,2.18,12.59-1.87,16.11-4.82,4.19-10.16,3.33-14.34-2.78-2.78-4.06-4.46-8.87-7.09-13.05-1.37-2.18-3.57-4.92-5.69-5.2-1.9-.25-5.44,2.13-6.03,4.04-.79,2.56.22,5.9,1.15,8.67.52,1.57,2.5,2.61,3.68,4,5.49,6.43,5.67,13.23.9,20-4.77,6.78-9.15,13.84-14.03,20.54-1.89,2.59-4.46,4.89-7.16,6.65-3,1.95-6.71,1.28-8.26-1.76-1.14-2.23-1.11-5.91-.02-8.2,1.59-3.36,4.66-6,6.97-9.05,1.9-2.51,3.88-5.02,5.31-7.8,1.48-2.86.83-6.13-2.22-7.13-1.61-.52-4.77.99-6,2.55-3.69,4.69-6.95,9.76-10.05,14.87-2.49,4.12-5.79,6.05-10.62,6.02-16.67-.11-33.33-.03-50-.07-6.64-.01-9.1-1.82-10.48-8.15-.69-3.18-2.6-3.98-5.37-3.91-2.92.07-5.9-.6-7.24,3.49-2.61,7.94-3.88,8.61-12.19,8.6-24-.01-48,.06-72-.07-4.28-.02-6.84.82-7.4,5.78-.51,4.49-4.31,5.92-8.45,6.13-4.67.23-9.3-.72-10.11-5.93-.85-5.5-3.81-6-8.31-5.98-28.67.12-57.33.06-86,.06-7.44,0-8.99-1.08-11.15-8.41-1.16-3.95-4.15-3.66-7.19-3.69-2.98-.03-5.04.78-5.76,4.16-1.26,5.99-3.52,7.81-9.59,7.91-7,.12-14,.13-21-.01-4.38-.09-7.9-1.86-8.65-6.64-.68-4.37-3.05-5.84-7.25-5.43-2.81.27-5.65.13-8.48.18C0,328.99,0,327.99,0,326.99c2.99-.11,5.98-.31,8.97-.31,6.18,0,8.11,1.33,9.5,7.23.8,3.4,2.66,4.72,5.97,4.69,6.83-.06,13.67-.16,20.5,0,4.14.1,6.48-1.28,7.24-5.67.86-4.99,4.56-6.35,9.27-6.37,4.75-.02,8.65,1.53,9.35,6.34.74,4.99,3.41,5.69,7.57,5.68,28.5-.09,57-.06,85.49-.05,9.25,0,8.98.16,12.6,8.62.76,1.78,4.37,2.74,6.84,3.28,2.87.62,5.1-.71,5.95-3.92,1.82-6.85,3.37-7.96,10.4-7.96,24.33,0,48.66,0,72.99.05,3.99.01,6.95-.38,7.74-5.49.77-5.01,4.7-6.66,9.7-6.54,4.77.12,8.29,1.68,9.1,6.62.69,4.18,2.94,5.43,6.88,5.41,17-.11,34-.1,51-.01,3.34.02,5.59-1.07,7.38-3.99,3.13-5.11,6.56-10.04,9.97-14.97,3.31-4.77,7.27-6.04,10.94-3.72,3.97,2.51,5.07,7.67,2.26,12.35-1.7,2.84-3.92,5.36-5.95,7.99-2.02,2.64-4.36,5.09-6.02,7.94-.71,1.22-.7,3.91.14,4.72.97.93,3.67,1.25,4.83.55,2.18-1.33,4.08-3.38,5.59-5.49,4.91-6.88,9.53-13.98,14.39-20.91,3.47-4.96,3.26-10.58-.95-15.58-1.39-1.65-3.06-3.08-4.42-4.75-2.96-3.62-3.15-7.61-1.05-11.68,1.92-3.71,5.08-5.76,9.28-5.64,4.53.12,6.35,3.35,8.05,7.07,2.13,4.65,4.64,9.17,7.38,13.49,2.23,3.5,5.43,4.17,8.95,1.48,3.91-3,4.99-7.42,2.57-10.81-2.8-3.92-5.96-7.62-8.39-11.76-2.53-4.3-3.52-9.02-.45-13.69,2.32-3.54,5.58-5.18,9.79-4.59,3.87.55,5.04,3.48,6.48,6.71,1.99,4.47,4.38,8.98,7.56,12.65,4.51,5.21,5.48,10.22,3.64,16.94-3.6,13.07-11.17,21.93-23.8,26.86-8.44,3.3-15.11,8.93-19.64,16.98-2.2,3.91-4.97,7.49-7.2,11.39-1.67,2.92-3.18,6.3-.26,9.22,3.15,3.15,7.28,2.42,10.01-.07,4.22-3.85,8.02-8.34,11.24-13.08,2.29-3.37,3.33-7.58,4.97-11.4.72-1.68,1.41-3.4,2.39-4.94,2.93-4.61,7.76-6.89,11.3-5.18,4.68,2.25,5.3,6.72,3.79,10.72-2.2,5.84-5.5,11.27-8.37,16.86-1.9,3.69-4.02,7.27-5.72,11.05-.94,2.09-1.54,4.45-1.73,6.73-.37,4.35.41,8.87,4.83,10.59,4.2,1.64,7.76-1.53,9.47-4.8,2.55-4.87,5.16-10.31,5.46-15.64.52-9.34.43-18.56,3.91-27.5.77-1.98.28-5.17-.87-7.03-3.52-5.7-2.57-10.74,1.02-15.79.48-.68.91-1.42,1.51-1.99,8.87-8.48,8.62-18,3.43-28.22-2.34-4.6-4.65-9.24-6.47-14.06-2.77-7.32.18-13.57,7.2-16.18,5.99-2.23,11.25,1.28,11.33,7.71.05,4.16-.57,8.36-.14,12.46.19,1.8,2.23,3.41,3.44,5.11,1.17-1.62,3-3.09,3.37-4.87.87-4.21.9-8.59,1.53-12.86.58-3.87,3.04-6.47,6.9-6.8,3.98-.34,6.4,2.35,7.9,5.76,2.39,5.45,1.17,10.8-.84,16.01-1.14,2.94-3.06,5.62-3.94,8.61-1.09,3.7-1.66,7.6-2.08,11.45-.32,2.95.22,6-.11,8.95-.97,8.53-4.03,11.27-12.51,11.81-3.86.25-8.21.22-8.52,5.51-.2,3.43,4.05,5.16,9.63,4.28.99-.16,1.96-.41,2.95-.55,10.53-1.54,14.64,2.48,13.64,12.96-.54,5.63-.61,11.3-.99,16.95-.14,1.98-.38,3.99-.95,5.88-1.35,4.43-4.32,6.58-9.08,5.79-4.35-.72-6.73-3.74-6.54-8.58.13-3.49.61-6.97.73-10.47.13-3.52-1.32-6.47-4.92-7.13-4.02-.74-5.5,2.37-6.29,5.63-.47,1.92-.79,3.93-.81,5.9-.1,9-.66,18.05.05,26.99,1.17,14.73-17.46,26.23-30.64,22.05-9.05-2.87-15.44-8.13-16.51-18.44-.59-5.64-5.32-8.1-10.67-6.22-10.11,3.56-12.3,2.31-19.55-5.63-5.86-6.42-12.71-12.14-19.89-17.04-2.56-1.75-7.94-1.41-11.04.06-6.28,2.97-6.16,10.73.09,13.7,3.37,1.6,7.67,1.97,11.48,1.77,6.27-.34,10.59,1.17,12.13,5.44,1.53,4.24-1.05,9.39-6.23,12.34-4.84,2.76-9.71,3-14.76.4-2.19-1.12-4.59-2.05-6.99-2.51-3.99-.77-7.27.45-8.9,4.56-1.57,3.96.15,6.95,3.21,9.09,7,4.9,15.12,4.94,22.53,2.38,6.91-2.39,13.1-6.9,19.52-10.62,2-1.15,3.61-3,5.63-4.1,7.42-4.04,12.77-1.92,15.62,6.02,4.24,11.78,9.61,15.66,22.31,15.5,5.98-.08,11.96-.98,17.94-1.14,4.46-.12,9.02-.11,13.37.7,4.75.88,7.36,4.79,7.05,8.98-.32,4.39-4.2,8.43-8.88,8.7-2.97.17-5.98-.57-8.96-.44-9.75.44-19.54.63-29.21,1.81-7.14.87-11.58,5.93-14.48,12.44-1.89,4.24-3.77,8.64-6.57,12.25-2.23,2.87-5.6,5.23-8.94,6.77-5.34,2.45-10.5.64-13.16-3.7-3.02-4.92-2.42-10.61,1.93-14.49,2.21-1.97,4.84-3.52,7.42-4.99,10-5.7,11.24-15.48,11.6-25.45.06-1.69-2.2-4.54-3.82-4.91-1.6-.36-4.56,1.29-5.5,2.89-1.9,3.24-2.56,7.17-4.24,10.57-1.58,3.19-3.28,6.67-5.86,8.95-4.72,4.18-9.89,3.02-14.8-.91-5.51-4.4-11.39-8.59-17.7-11.65-5.89-2.85-11.08-.33-14.45,5.25-3.3,5.47-2.69,10.03,2.01,14.9,5.52,5.73,13.24,6.56,19.97,2.15,5.87-3.85,10.32-3.01,13.38,2.52,2.84,5.14.82,11.04-4.8,13.8-7.03,3.45-14.29,2.25-21.55.92-3.93-.72-7.84-1.58-11.8-2.1-7.83-1.01-13.68,2.93-14.43,9.53-.78,6.8,5.5,14.93,12.52,14.76,4.74-.11,9.55-2.01,14.11-3.71,5.24-1.95,10.08-5.05,15.39-6.74,4.88-1.55,9.45.23,13.25,3.86,8.76,8.36,17.8,9.21,28.06,2.62,9.78-6.28,16.65-15.35,22.61-25.01,5.88-9.52,14.28-13.52,25.04-13.55,3.5,0,7,.37,10.49.26,4.8-.16,9.67-.17,14.36-1.06,5.33-1.01,8.19-4.76,7.51-10.11-.73-5.72-2.3-11.37-3.85-16.95-1.9-6.88-4.68-13.58-2.75-20.97,1.49-5.7,4.94-9.17,9.61-9.37,5.11-.22,10.42,3.2,11.1,8.88,1.07,8.85,1.17,17.85,1.19,26.79.03,9.44-.92,18.89-.67,28.31.22,8.51-3.31,13.62-11.87,13.65-5.22.02-10.44-1.63-15.68-2.33-6.4-.86-12.82-1.74-19.26-2.16-2.91-.19-5.81,1.05-5.87,4.74-.05,3.59,1.86,6.29,5.41,6.77,4.59.62,9.27.54,13.91.75,6.96.32,14.04-.05,20.85,1.13,9.46,1.64,13.83,9.08,12.34,19.03-1.55,10.31-7.82,16.5-16.72,15.44-3.33-.4-6.76-2.55-9.5-4.72-2.68-2.12-4.76-5.12-6.73-7.99-5.71-8.28-13.48-9.56-22.47-7-9.89,2.82-19.77,5.7-29.65,8.57-10.04,2.91-13.8,10.83-15.65,20.07-.78,3.9-.89,7.94-1.46,11.89-.78,5.41-3.62,9.31-8.98,10.9-4.38,1.3-7.82-.69-10.65-3.85-3.21-3.58-2.28-7.7-1.43-11.85.92-4.54,2.16-9.1,2.33-13.69.32-8.8-7.25-13.14-15-8.96-.44.24-.92.44-1.28.77-7.99,7.4-16.16,7.32-25.45,1.91-7.04-4.1-10.87-2.38-15.51,4.47-3.15,4.64-4.28,9.67-3.34,15.2,1.77,10.4,10.27,14.41,19.24,9.03,2.99-1.8,5.93-3.69,8.9-5.52,3.97-2.45,7.59-1.76,10.98,1.22,7.75,6.81,12.19,24.04,8.68,33.76-2.6,7.19-9.02,10.13-15.46,6.04-3.71-2.36-6.73-6.31-9.14-10.12-3.65-5.75-8.23-7.87-14.72-5.51-6.72,2.44-10.64,7.45-11.9,14.26-1.97,10.68-.43,20.97,5.29,30.32,5.81,9.49,14.32,9.58,20.7.5,2-2.86,3.85-5.89,6.24-8.39,6.86-7.14,17.38-6.63,23.63,1.05,2.2,2.7,4.04,5.71,6.03,8.58,3.1,4.47,7.38,5.4,12.34,4,5.01-1.42,9.73-6.48,9.56-10.98-.09-2.25-1.27-4.81-2.75-6.56-1.54-1.82-3.95-3-6.14-4.18-10.69-5.76-11.89-15.06-2.96-23.38,12.87-11.98,30.36-7.59,38.3,9.61,6.38,13.82,3.23,28.77-8.82,38.23-6.65,5.22-13.93,9.69-21.2,14.04-9.66,5.77-19.61,5.56-30.25,1.86-5.52-1.92-12.08-2.04-17.99-1.38-6.32.71-10.24,5.5-11.16,11.9-1.47,10.29,1.01,25.39,13.45,28.56,11.6,2.95,17.64,1.66,22.75-7.57,4.26-7.69,10.76-12.39,19.59-14.08,4.7-.9,9.33-2.46,13.79-4.23,15.28-6.05,25.45-16.76,30.66-32.63,5.64-17.17,9.46-34.35,5.83-52.45-1.38-6.88-5.03-10.27-12.02-11.13-2.64-.33-5.32-.32-7.95-.69-8.88-1.24-13.53-8.95-9.42-16.8,5.6-10.69,15.48-15.28,27.09-15.92,10.93-.61,17.97,5.91,22.17,14.98,8.14,17.55,8.56,35.34-.5,52.9-3.48,6.74-2.62,14.02-1.96,21.09.82,8.79-.65,16.25-7.51,22.63-5.94,5.52-5.6,10.62.11,16.46,3.25,3.33,6.87,6.3,10.33,9.43,6.86,6.21,10.63,13.65,8.82,23.11-1.47,7.64-7.21,10.41-13.59,6.1-4.49-3.04-8.2-7.23-12.32-10.85-4.5-3.95-8.82-8.15-13.65-11.66-5.19-3.79-9.61-3.86-13.99.78-9.81,10.37-21.94,17.13-34.17,23.9-2.58,1.43-4.95,3.43-6.99,5.57-3.46,3.64-4.34,7.83-2.65,12.88,4.67,14,20.78,23.26,35.34,19.97,9.73-2.2,12.01-8.87,5.74-16.76-4.07-5.11-7.49-10.53-4.77-17.35,3.99-10.01,15.88-12.66,24.44-5.53,2.29,1.91,4.36,4.13,6.3,6.41,8.69,10.19,8.49,20.48-2.15,28.62-10.51,8.05-10.73,20.99-7.36,31.2,2.57,7.78,8.43,10.88,16.17,8.02,8.35-3.08,16.57-5.98,25.61-5.58.79.04,1.84-.18,2.35-.69,1.87-1.88,3.57-3.93,5.33-5.91-2.17-1.72-4.11-4.17-6.58-4.98-2.9-.95-6.26-.47-9.42-.61-10.98-.48-15.34-5.02-13.75-15.93.76-5.22,2.63-10.87,5.75-15.01,5.49-7.28,14.76-5.21,18,3.31.71,1.86,1.19,3.81,1.88,5.69,2.07,5.62,6.06,6.45,10.19,2.05,4.05-4.31,3.72-9.41,2.05-14.51-.67-2.03-1.93-3.87-2.97-5.77-4.77-8.69-4.9-16.78,1.57-25.06,6.87-8.79,4.99-16.64-4.46-22.76-3.49-2.26-7.12-4.34-10.45-6.81-4.3-3.19-5.75-7.68-4.51-12.86,1.16-4.85,4.96-6.8,9.36-7.94.16-.04.33-.07.49-.1,4.62-.7,9.76-.92,11.13-6.63,1.29-5.37-2.94-8.48-5.95-11.93-2.62-3.01-5.77-5.61-8.04-8.84-5.61-8.01-2.09-17.39,7.34-20.09,2.22-.64,4.59-.77,6.87-1.21,4.19-.82,7.8-2.72,8.61-7.22.82-4.52-2.03-7.57-5.63-9.72-2.68-1.6-5.65-2.68-8.44-4.1-7.07-3.61-7.37-11.07-5.79-15.87,1.69-5.12,7.62-8.14,14.15-8.18,8.1-.05,16.2-.58,24.28-1.12,2.08-.14,4.11-1.1,6.68-1.84-2.58-10.24-4.91-20.2-7.64-30.05-1.88-6.77-2.05-12.76,4.15-17.6.81-.64,1.09-3.06.56-4.14-5-10.24-5.92-20.66-2.19-31.5.41-1.2.09-2.95-.49-4.15-5.02-10.3-5.37-20.71-1.54-31.48.56-1.56-.16-3.8-.8-5.54-2.96-8.02-4.28-15.76,1.94-23.06.79-.92.67-3.08.28-4.46-2.35-8.24-2.44-16.37.12-24.59.47-1.51.04-3.44-.39-5.06-1.45-5.42-3.79-10.71-4.49-16.21-.94-7.41-.83-14.96-.9-22.46-.14-15.73,6.76-24.42,22.12-27.99,7.84-1.82,15.56-1.51,22.83,2.36,8.58,4.56,11.68,11.12,8.7,20.36-1.3,4.03-.53,6.25,2.9,8.05,16.25-8.25,27.34-4.82,36.99,11.13,1.13,1.87,3.35,3.52,5.43,4.31,11.61,4.42,19.97,18.37,18.5,32.26-.4,3.75.58,5.96,3.24,8.54,11.96,11.63,20.36,25.04,19.77,42.6-.04,1.2.89,3.05,1.9,3.58,14.45,7.6,17.74,21.04,19.1,35.63,1.27,13.68-2.34,25.7-11.66,35.92-1.19,1.31-2.18,2.81-3.84,4.97,5.17,1.36,9.55,2.51,14.38,3.78,0-3.54-.27-6.63.05-9.66.78-7.34,5.73-12.02,12.3-11.97,6.07.04,10.86,4.33,11.52,10.32.82,7.42-3.53,13.5-10.86,14.98-2.1.42-4.27.46-8.07.84,2.33,3.07,3.64,6.47,6.04,7.65,8.47,4.17,12.47,11.09,12.89,19.92.79,16.61,1.83,33.37-2.26,49.68-1.61,6.43-5.45,12.3-8.23,18.45-.56,1.24-1.53,2.81-1.19,3.86,3.03,9.32,1.61,18.47-.87,27.54-3.53,12.89-7.55,25.71-15.51,36.58-3.84,5.24-9.1,9.59-14.24,13.7-5.12,4.08-6.1,10.05-8.39,15.45-.21.49,1.31,2.09,2.32,2.67,20.92,12.13,42.66,15.53,65.46,5.67,15.39-6.66,30.83-5.99,46.26-.55,13.19,4.65,26.24,9.51,40.57,9.54,18.23.03,33.92-7.44,49.31-15.89,13-7.14,25.89-14.44,40.78-17.04,22.24-3.88,43.1,1.01,62.97,10.61,15.58,7.53,30.74,15.9,46.15,23.78,3.54,1.81,7.31,3.18,10.97,4.75v3Zm-355.46-45.06c4-4.43,7.57-7.65,10.24-11.5,8.24-11.89,13.18-25.32,16.07-39.35,1.34-6.51.95-13.4.95-20.12,0-.97-2.3-2.8-3.43-2.72-2.58.18-5.21,1.06-7.61,2.12-2.02.89-4.81,2.24-2.56,5.12,6.51,8.37,6.58,17.7,4.69,27.46-3.36,17.37-17.65,24.91-33.61,17.39-5.2-2.45-9.98-5.81-15.38-9-.94,1.13-2.14,2.57-3.75,4.49,5.91,3.49,12.67,6.27,7.32,14.81,5.62.55,10.55,1.02,15.48,1.53,5.35.56,10.24,1.81,11.58,9.76Zm-93.67-367.69c3.91-6.81,2.87-13.02-2.45-17.39-5.98-4.91-13.04-5.44-20.29-4.93-12.42.87-22.75,9.5-23.03,20.14-.28,10.62.25,21.3,1.05,31.91.28,3.78,2.4,7.42,3.76,11.38,4.72-3.04,5.23-5.94,4.01-10.03-.95-3.21-1.93-8.1-.29-10.07,5.04-6.06,2.76-11.69,1-17.67-.28-.95-.43-1.96-.48-2.95-.34-6.28,2.33-10.51,8.1-12.95,5.74-2.42,13.67-2.03,15.65,1.96,2.83,5.71,8.34,7.09,12.96,10.61Zm91.08,111.64c-.39,2.85-.4,5.38-1.13,7.69-1.19,3.79-.17,5.99,3.23,8.2,3.57,2.33,6.78,5.44,9.51,8.74,6.78,8.2,4.84,17.03-4.59,21.87-2.5,1.28-5.23,2.83-7.9,2.91-8.31.25-10.74,7.17-15.26,11.73,4.6,4.95,8.3,10.4,15.44,10.41,1.52,0,3.51-.45,4.51-1.46,12.41-12.52,16.81-27.34,13.24-44.79-2.2-10.77-6.04-19.95-17.05-25.3Zm-78.81,13.83c6.28-3.92,12.3-7.58,18.2-11.42,2.9-1.88,2.48-9.02-.54-10.18-4.93-1.89-9.91-4.67-14.74.47-.79.84-2.36,1.08-3.62,1.32-8.42,1.62-16.88,3.08-25.29,4.78-6.87,1.39-13.08-1.49-16.15-7.8-.99-2.02-1.94-4.07-2.89-6.08-7.69,3.72-8.43,5.89-4.35,12.16,1.81,2.79,4.01,5.33,5.7,8.18,1.88,3.17,3.75,3.35,6.86,1.43,14.77-9.09,27.24-6.55,36.83,7.13Zm-37.98,284.67c-7.51-7.22-8.83-10.13-8.52-15.89.18-3.34-.3-6.73-.66-10.08-.25-2.3-.91-4.55-1.22-6.84-1.33-9.7-2.48-19.42-3.97-29.1-.47-3.04-1.82-5.95-2.77-8.92-.66.02-1.31.05-1.97.07-.65,3.1-1.72,6.17-1.88,9.29-.37,7.14.44,14.42-.59,21.44-1.32,9-1.28,17.63.01,26.69,1.55,10.87,10.08,15.69,21.58,13.33Zm91.01-74.88c5.84,3.23,11.19,6.83,17.01,9.29,11.32,4.78,21.9-.51,25.64-12.24.55-1.73,1.12-3.48,1.43-5.26,1.51-8.69,1.48-17.1-4.92-24.66-4.68,4.95-9.13,9.66-13.69,14.47,3.26,2.39,6.32,4.17,8.75,6.59,1.57,1.57,3.61,4.88,2.98,5.96-1.1,1.87-4.15,3.7-6.31,3.62-5.57-.21-11.42-.63-16.57-2.54-5.76-2.14-9.79-1.4-14.33,4.77Zm22.21-229.52c3.44-13.9-8.44-34.05-20.91-42.88-1.84,6.66-3.69,13.12-5.34,19.63-.25.98.25,2.27.69,3.29,2.47,5.79,4.89,11.61,7.65,17.26.6,1.23,2.47,2.47,3.84,2.57,4.53.32,9.1.12,14.07.12Zm-42.45,56.1c3.87-3.31,5.93-5.87,3.03-11.09-8.05-14.53-7.28-18.73,3.75-31.71,1.95-2.29,1.02-4.08-1.43-4.22-4.62-.26-9.31-.07-13.9.5-1.22.15-2.65,2.24-3.15,3.73-1.99,5.94-5.62,10.1-11.68,11.97-1.82.56-3.64,1.08-7.32,2.17,2.69,2.22,4.16,4.47,5.9,4.7,6.79.89,11.84,4.28,15.63,9.66,3.14,4.46,5.92,9.17,9.18,14.28Zm76.53,126.81c2.1-3.5,4.59-6.09,5.28-9.09,2.35-10.11,4.96-20.3,5.78-30.59.83-10.51-.08-21.19-.76-31.76-.37-5.71-5.05-10.51-8.7-11.23-.96,5.83-2.02,11.67-2.81,17.55-.14,1.05.85,2.23,1.25,3.37,1.22,3.42,3.22,6.8,3.43,10.28.38,6.36-4.14,12.63-.1,19.29.85,1.39-.15,4.25-.91,6.19-1.08,2.76-2.75,5.29-4.13,7.93-3.02,5.81-3.81,11.52,1.67,18.05Zm-103.72,17.51c3.31-8.05,3.13-8.62-3.13-12.61-1.68-1.07-3.16-2.54-4.94-3.35-1.54-.71-3.62-1.44-5.07-.96-8.65,2.84-17.46,5.45-25.65,9.34-3.83,1.82-7.1,5.92-9.25,9.75-1.13,2.01.15,7.95,1.26,8.21,4.82,1.13,10.03,1.28,14.97.73,1.24-.14,2.34-4.16,2.97-6.54,3.09-11.64,10.42-14.94,20.91-9.22,2.59,1.41,5.08,2.98,7.94,4.66Zm11.85,83.38c-.23-.32-.47-.64-.7-.96-7.77,0-15.57.41-23.29-.19-3.48-.27-5.47.43-7.51,3.05-4.16,5.33-9.25,8.26-16.41,5.83-3.99-1.36-8.22-2.02-12.34-3-1.72,8.92,7.75,17.76,17.02,14.75,10.81-3.51,21.37-7.86,31.83-12.32,4.08-1.74,7.62-4.74,11.4-7.17Zm6.15-55.16c.12-.87.27-1.22.19-1.51-2.56-9.23-10.1-14.54-16.48-20.74-.41-.4-1.55-.3-2.26-.1-7.91,2.29-15.81,4.61-23.69,6.99-2.39.72-4.96,1.48-3.37,4.33,6.72,3.09,13.1,6.67,19.48,10.23.56.31,1.17.77,1.76.77,8.05.05,16.1.03,24.36.03Zm-73-1.8c-.75.02-1.5.03-2.25.05-.28,1.87-1.08,3.83-.77,5.59,1.63,9.08,3.7,18.08,5.32,27.17,1.18,6.63,1.91,13.34,2.87,20.25,6.06-2.26,11.37-4.25,16.57-6.2-.12-.85-.07-1.22-.22-1.48-4.91-8.44-9.21-16.94-4.67-27.06.26-.57-.78-2.45-1.45-2.59-8.53-1.81-13.66-6.99-15.4-15.74Zm39.96,52.72c3.16.24,4.76.52,6.35.45,7.12-.29,14.23-.91,21.35-.96,5.06-.03,7.09-2.54,7.72-7.14.99-7.18.23-9.46-5.01-11.13-4.72-1.5-9.59-2.55-14.45-3.52-1.07-.21-2.5.57-3.56,1.22-7.7,4.75-6.83,14.01-12.4,21.07Zm-13.04,26.5c5.86,3.15,12.72,2.33,16.56-.99,2.74-2.37,5.69-4.74,8.95-6.21,7.7-3.45,15.51-5.23,22.5,1.88.67.68,2.46,1.31,2.97.93,6.1-4.49,13.13-8.2,15.96-15.85,2.14-5.78.74-7.21-5.3-6.33-1.96.29-4,.17-5.93.57-3.49.73-7.79.69-10.23,2.76-11.88,10.1-25.6,16.38-40.22,21.1-1.61.52-3.15,1.27-5.25,2.14Zm23.12-377.24c4.09-.9,7.89-.6,9.77-2.36,5.65-5.3,11.45-9.93,19.77-11.28-3.12-6.68-7.15-11.69-13.51-14.59-5.46-2.49-10.89-2.63-16.22.38-2.32,1.31-3.42,2.79-1.74,5.62,3.83,6.44,4.58,13.4,1.92,22.22Zm30.15,199.36c8.03.34,15.09-9.96,11.98-16.58-.33-.7-1.47-1.36-2.29-1.43-7.66-.63-13.41-4.94-18.3-10.17-4.04-4.32-7.57-5.8-12.9-2.26-3.08,2.05-6.88,3-10.49,4.5,4.46,5.12,8.14,9.35,11.96,13.73,5.17-3.26,10.81-6.21,16.65-2.73,5.65,3.36,5.44,9.22,3.39,14.94Zm-42.07-228.5c-6.55,7.38-14.15,10.84-23.95,7.23-1.14-.42-3.2.67-4.33,1.64-.53.46-.31,2.58.29,3.46,5.72,8.39,13.03,14.48,23.5,16.04,3.5.52,5.31-.39,5.66-4.11.5-5.24.72-10.62,2.12-15.64,1.07-3.86.87-6.38-3.28-8.62Zm85.67,204.81c8.6,6.93,18.6,9.61,28.3,12.88.81.27,2.49-.55,3.07-1.36,2.73-3.83,2.31-13.95-.68-17.66-.66-.82-1.87-1.47-2.92-1.65-4.07-.71-8.17-1.49-12.29-1.72-7.01-.38-11.98,3-15.48,9.51Zm-14.38-76.8c-.21-14.12-.28-14.33-9.44-16.38-1.42-.32-3.42-.05-4.49.79-.67.53-.54,2.82-.02,3.99,4.79,10.79,3.59,21.06-2.67,30.77-3.07,4.76,1.23,6.45,3.5,8.23,2.51,1.98,5.08.75,6.73-2.43,4.28-8.26,7-16.83,6.38-24.98Zm-32.5,202.08c3.33-2.43,6.05-4.79,9.12-6.55,3.82-2.2,3.95-4.19.84-7.18-1.76-1.69-2.95-4-4.3-6.08-5.28-8.17-12.36-13.95-22.21-16.86-.39,1.54-.45,3.12-1.16,4.31-2.75,4.65-.31,7.37,3.05,10.32,6.63,5.82,12.6,12.22,14.66,22.05Zm-3.01-280.34c2.88,2.3,4.61,3.68,6.48,5.17,6.26-6.62,13.13-8.14,20.78-3.8,4.43-12.53-3.97-28.82-16.58-31.49,3.97,12.41.81,22.51-10.69,30.12Zm-55.93,304.22l-1.16.51c2.24,5.23,4.37,10.51,6.85,15.63.42.87,2.8,1.8,3.5,1.38,5.99-3.51,11.99-7.07,17.59-11.16,2.86-2.09,1.94-4.96-1.21-6.37-5.72-2.56-11.41-5.22-17.06-7.93-4.62-2.21-7.32-.98-8.18,3.97-.23,1.3-.22,2.64-.33,3.97Zm32.23-197.34c-3.24-5.65-8.11-5.69-13.23-4.88-9.65,1.53-19.26,3.5-28.96,4.54-7.12.77-10.73-3.94-9.39-10.97.28-1.46,1.08-2.93.97-4.34-.11-1.39-1.06-2.72-1.65-4.08-4.28,11.19-3.12,21.11,2.63,30.19.78.08.98.17,1.1.11.87-.47,1.72-.99,2.59-1.45,10.38-5.47,20.89-9.57,32.61-3.72.93.46,2.59-.03,3.69-.53,3.16-1.44,6.22-3.12,9.63-4.87Zm81.21,109.96c5.41,1.89,10.79,2.78,15.01,5.49,5.55,3.57,2,9.85,2.01,15.55,2.7-1.06,4.76-1.87,7.7-3.03-6.98-8.42-4.55-16.18.24-23.84.96-1.54,2.22-3.17,2.39-4.85.33-3.17-.03-6.41-.11-9.89-6.72,3.73-11.95,7.41-17.74,9.63-5.79,2.21-7.67,6.69-9.49,10.93Zm-50-206.81c-.73.15-1.45.31-2.18.46-1.03,4.02-2.46,7.98-3,12.06-1.1,8.45,3.33,15.32,7.29,22.2.47.82,2.88,1.54,3.47,1.09,2.28-1.75,5.11-3.64,6.04-6.11,2.02-5.36,3.13-10.98-1.38-16.18-3.7-4.26-6.84-9-10.24-13.52Zm-.45,356.11c3.45-1.65,6.7-3.12,9.86-4.74,10.67-5.46,19.19-13.14,24.25-24.2.59-1.28.95-3.79.27-4.34-5.97-4.87-12.19-9.42-18.71-14.35.34,4.43-.83,8.84,5.84,9.45,3.98.36,5.61,4.51,4.25,8.54-2.44,7.24-7.46,12.14-14.38,14.99-4.23,1.74-8.68,2.93-13.13,4.4.57,3.37,1.08,6.42,1.73,10.25Zm-78.04-274c-3.32,9.56-1.45,12.33,7.78,11.35,7.24-.77,14.38-2.52,21.59-3.66,7.61-1.2,15.27-2.72,20.75,5.3.82,1.2,3.78.95,6.67,1.56-2.49-7.63-4.52-13.83-6.68-20.42-7.17,3.08-13.63,6.04-20.22,8.66-8.05,3.19-16.25,4.89-24.47.44-1.72-.93-3.36-2.01-5.41-3.24Zm10.03,295.77c.42-11.62-3.51-17.21-12.55-19.07-6.43-1.33-11.74,1.33-12.75,6.38-1.5,7.48,1.92,12.94,9.32,13.49,5.32.4,10.73-.49,15.98-.8Zm-6.71-426.03c-4.37,3.57-5.43,7.81-3.17,14.45.55,1.61,2.48,2.94,4.05,3.97,2.69,1.77,5.69,3.06,8.4,4.81,2.76,1.78,5.12,4.3,8.03,5.71,6.74,3.27,12.23-.76,12.19-8.92-13.25-1.46-22.75-8.8-29.49-20.02Zm-3.03,258.47c5.68-5.37,10.67-10,13.05-16.89,1.05-3.04,2.23-5.24-1.69-7.25-2.04-1.05-3.43-3.53-4.86-5.54-1.84-2.59-3.42-5.36-5.66-8.91-5.59,13.24-6.44,25.3-.85,38.6Zm46.45-142.08l-1.6-.74c-1.22,1.57-2.29,3.28-3.67,4.68-5.08,5.16-10.78,6.03-17.14,2.64-2.04-1.09-3.95-2.43-5.83-3.78-5.94-4.24-6.79-4.23-12.05.83-1.31,1.26-2.47,2.69-3.71,4.04-1.72,1.89-1.73,3.77.69,4.8,3.58,1.53,7.25,3.45,11.02,3.85,12.87,1.37,22.78-6.79,34.29-11.15-.75-1.93-1.38-3.55-2-5.17Zm5.88-33.36q-4.57-5.19-9.71-2.95c-11.62,5.05-18.22,4.35-24.51-2.62-4.03-4.46-6.46-4.92-11.72-1.55-1.05.67-1.99,2.97-1.64,4.13,2.92,9.83,9.01,12.69,19.29,10.06,6.22-1.59,12.68-2.23,18.95-3.64,3.09-.7,6.01-2.17,9.34-3.42Zm55.82,21.85c2.44,13.61.55,26.57-6.55,39.21,3.25-.24,5.52-.6,7.77-.55,4.91.11,7.27-2.45,7.83-7.03.26-2.13.37-4.28.51-6.42.29-4.45.18-8.97.89-13.35,1.32-8.13-.92-11.04-10.46-11.87Zm-116.37,209.08c3.21-.74,4.57-2.35,3.99-6.01-.54-3.39-.7-7.04-.04-10.39,1.94-9.89,4.42-19.68,6.51-29.55.28-1.33-.45-2.88-.87-5.2-15.71,16.84-19.24,37.46-9.6,51.15Zm113.5-119.85c-7.34,3.17-14.31,3.76-14.23,13.49.04,5.43-3.57,11.7-10.08,11.86-7.11.17-7.31,5.55-9.88,9.81,6.7-.58,13.02-1.96,19.29-3.52.78-.2,1.52-1.27,1.94-2.1,4.16-8.1,8.29-16.21,12.29-24.39.57-1.16.38-2.69.67-5.13Zm-45.2,222.67c-1.82.71-3.58,1.66-5.46,2.07-4.5.99-9.55,3.37-13.46,2.18-5.92-1.8-10.16.42-14.94,2.38-2.61,1.07-5.35,1.85-7.87,3.09-1.56.76-2.83,2.13-4.23,3.23,1.41,1.69,2.58,4.49,4.28,4.85,3.76.8,7.98,1.2,11.65.29,11.68-2.91,20.83-10.58,30.03-18.08Zm-13.3-169.04c3.65-3.28,6.38-5.67,9.03-8.13,4.38-4.06,3.61-8.39-1.95-10.93-1.18-.54-2.48-.93-3.77-1.12-8.89-1.3-16.24,3-23.7,6.77-.68.34-.75,1.86-1.11,2.84.98.24,2.03.84,2.93.66,7.31-1.45,13.06.6,16.94,7.16.42.71.84,1.42,1.63,2.75Zm-38.68-142.17c2.89,4.72,6.23,7.09,11.96,6.19,4.34-.68,8.93.3,13.41.43,3.51.1,7.02.02,10.69.02-5.01-14.98-21.45-17.88-36.06-6.64Zm111.73,35.93c5.44-.99,10.92-2.16,14.88-6.52,1.42-1.56,2.51-4.08,2.52-6.16.01-5.95-8.47-14.96-15.31-16.35-.69,9.55-1.37,19.03-2.08,29.03Zm-8.77,21.41c-2.87-4.84-5.81-5.03-9.87-1.83-2.95,2.33-6.42,4.54-9.99,5.37-4.16.98-4.22,2.83-3.09,5.94.34.93.87,1.91.83,2.84-.35,8.46,3.91,13.18,11.97,14.62,2.01.36,4.16-.1,6.08-.18-3.29-6.29-6.91-11.2-8.41-16.68-1.35-4.94,3.33-8.21,12.47-10.1Zm-8.03,121.55c2.22,1.96,4.35,4,6.67,5.8.78.6,2.4,1.13,3.03.74,6.23-3.91,12.34-8.02,19.02-12.43-4.12-3.21-7.93-6.33-11.95-9.16-.65-.46-2.6-.05-3.26.63-4.5,4.6-8.82,9.38-13.52,14.44Zm-4.75-.72c-1.11-1.85-2.09-3.38-2.95-4.97-.87-1.6-1.46-3.37-2.46-4.87-1.59-2.38-.18-7.48-4.45-7-2.64.3-5.28,3.23-7.32,5.52-1.69,1.91-2.99,4.47-3.62,6.96-1.6,6.3.05,8.33,6.42,9.25,5.49.8,10.13-.69,14.38-4.91Zm-104.25-228.7c4.85-1.28,9.28-2.01,13.28-3.73,1.53-.66,3.36-4.06,2.86-5.41-2.81-7.62-8.61-12.44-16.42-15.28-3.13,8.37-2.99,16.45.28,24.42Zm76.26,265.38h-23.9c.55,4.24,1.12,7.81,1.43,11.4.18,2.12-1.37,4.92,2.67,4.98,2.25.03,5.25,1.29,6.63.27,5.54-4.1,10.92-8.63,13.17-16.65Zm-47.01-76.96c-9.13,2.9-13.16,10.05-15.45,18.49-.24.88,1.23,3.08,2.2,3.28,6.28,1.34,12.18-.33,17.69-3.31.7-.38,1.35-2.03,1.1-2.8-1.71-5.27-3.67-10.45-5.54-15.66Zm-7.4-195.92c-.18.47-.36.94-.54,1.41,1.51,1.25,2.86,2.83,4.56,3.68,6.64,3.33,13.31,2.42,20.14.16,3.67-1.22,5.93-2.29,4.47-6.81-.61-1.9.31-4.24.16-6.35-.11-1.58-.82-3.11-1.26-4.66-1.66.72-3.99.97-4.85,2.23-4.42,6.43-10.63,9.13-18.1,9.7-1.54.12-3.06.42-4.6.64Zm21.31,221.61c-4.44-6.27-4.24-5.64-10.68-3.6-5.35,1.7-11.24,1.69-16.9,2.44-1.4.18-3.84-.02-4.05.58-2.26,6.39-4.18,12.9-6.19,19.38.48.24.96.47,1.44.71,8.61-13.07,23.48-14.39,36.38-19.5Zm19.7,72.33c-.16.63-.31,1.25-.47,1.88,2.96.79,5.9,1.66,8.88,2.35,8.82,2.04,11.49,6.1,9.84,15.08-.31,1.7-.55,3.4-.89,5.56,5.86-.6,11.21-1.16,16.64-1.72.29-6.48-.83-11.1-6.64-14.64-8.62-5.24-17.98-6.63-27.35-8.51Zm-24.68-188.36c-2.34-.94-4.02-2.28-5.54-2.12-6,.61-12.32.73-17.85,2.81-11.15,4.2-11.12,5.61-2.26,13.6.21.19.62.18.57.17,3.73-1.99,7.08-5.03,10.72-5.45,6.12-.7,9.76-4.25,14.36-9.01Zm75.83,202c3.71-.54,7.78-.68,11.51-1.89,1.67-.54,3.25-3.08,3.68-4.98.21-.91-2.21-3.34-3.66-3.56-6.87-1.02-13.82-1.97-20.73-1.86-1.67.03-3.77,4.03-4.65,6.56-.32.9,2.11,3.63,3.73,4.16,3.09,1.02,6.51,1.07,10.12,1.57Zm-48.03-338.74c2.85,2.31,6.04,4.03,7.95,6.68,2,2.78,2.78,6.44,4.11,9.76,7.93-5.17,10.78-16.78,6.07-24.33-.53-.85-2.2-1.76-3.04-1.53-5.98,1.63-11.37,4.33-15.09,9.41Zm70.26,242.59c-1.66,0-2.78-.35-3.27.06-2.05,1.71-4.26,3.42-5.64,5.62-.4.64,1.49,3.18,2.79,4.33,2.97,2.64,5.98,5.39,9.45,7.22,1.82.96,6.23.84,6.69-.12,1.62-3.39,3.41-7.75,2.47-10.98-.71-2.46-5.35-3.94-8.43-5.49-1.4-.71-3.24-.53-4.06-.65Zm-29.78,23.93c5.24-5.55,9.61-10.01,13.71-14.7.62-.7.44-2.76-.14-3.74-3.62-6.15-9-3.71-14.06-2.6-7.59,1.67-7.84,1.99-5.06,9.04,1.43,3.64,3.28,7.12,5.55,12Zm-32.35-21.99c6.86-2.59,13.38-5.04,20.48-7.72-5.09-2.9-9.86-4.54-13.06-7.74-3.37-3.37-5.25-8.25-8.32-13.35-1.43,2.22-3.62,4.05-3.41,5.56,1.04,7.52,2.71,14.96,4.32,23.25Zm-67.55-55.26c4.62-2.41,8.57-4.46,12.88-6.7-5.23-6.52-4.18-12.96-1.21-19.16,1.66-3.47-.5-4.82-2.63-5.58-1.06-.38-3.54,1.03-4.27,2.28-5.04,8.61-6.09,18.01-4.76,29.16Zm147.85,4.55c-9.77-4.56-18.62-8.8-27.61-12.72-.99-.43-2.77.95-3.49,1.23,3.36,3.92,6.26,7.1,8.92,10.47,2.72,3.45,5.2,7.09,8.15,11.14,4.77-3.44,9.25-6.67,14.03-10.12Zm-82.84,187.34c-.28-.67-.56-1.35-.84-2.02-6.79,1.09-13.57,2.87-20.38,3.05-5.9.16-7.96,3.45-8.95,7.95-.52,2.37.47,5.08.77,7.63,2.06-.67,4.12-1.33,6.17-2.01.47-.16.93-.36,1.35-.62,7.3-4.65,14.59-9.32,21.88-13.98Zm66.36-172.48c-8.31,7.76-16.25,15.18-24.19,22.59.18.46.36.91.55,1.37,5.1-.95,10.27-1.61,15.28-2.9,9.33-2.4,13.02-11.29,8.36-21.06Zm-118.46-171.19c-.58.43-1.17.86-1.75,1.28.77,3.11,1.46,6.24,2.31,9.33.87,3.18,2.34,4.83,6.34,4.3,7.8-1.03,15.76-.61,22.77,3.32,4.21,2.35,6.57,1.18,10-3.38-6.45-1.55-12.01-3.45-17.72-4.1-6.25-.7-11.42-2.93-16.02-7.07-1.71-1.53-3.94-2.48-5.93-3.69Zm134.7,111.05c.8,2.95-.96,7.81,5.29,7.79,7.53-.02,12.27-4.01,12.28-10.67,0-4.69-3.93-8.69-8.49-8.63-5.12.06-9.04,4.88-9.08,11.52Zm-74.75-120.46c-4.72,8.83-9.16,17.16-13.7,25.67,1.89,2.77,4.72,6.1,6.62,9.9,3.09,6.19,4.36,6.99,11.21,4.87.02-.16.1-.34.04-.47-.27-.61-.54-1.21-.87-1.79-6.29-11.28-10.76-22.68-2.79-35.15.47-.73-.36-2.29-.51-3.04Zm14.94,60.17c-11.32,5.15-11.32,17.73-2,29.82,7.18-9.09,7.97-20.84,2-29.82Zm-46.27,61.6c-13.62-4.91-19.53-2.59-24.02,9.16,11.63,8.28,16.92,4.73,24.02-9.16Zm63.27,60.95c-10.31-1.51-12.55.17-13.55,10.31-.27,2.79-.68,5.57-.77,8.36-.03.99.41,2.38,1.13,2.93,2.87,2.18,11.36-1.39,11.78-5.02.65-5.5.95-11.04,1.4-16.58Zm-87.7,82.25c-4.85.91-10.15,1.74-15.33,3.03-.97.24-2.23,2.41-2.09,3.54.79,6.63,8.47,13.11,15.04,12.8.83-.04,2.24-1.48,2.28-2.31.21-5.18.11-10.38.11-17.06Zm54.99,86.58c-10.77,7.08-21.52,14.15-32.27,21.23.14.43.28.86.42,1.29,2.18-.21,4.54.04,6.52-.71,7.42-2.81,14.79-5.77,22.02-9.03,5.37-2.42,6.38-6.96,3.3-12.78Zm.08-110.29c1.05-10.5,6.16-17.38,14.71-22.29,1.18-.68,1.1-3.57,1.96-6.78-7.99,2.76-14.24,4.82-20.39,7.16-.83.32-1.68,2.16-1.54,3.16.67,4.91,1.52,9.8,2.64,14.63.35,1.5,1.72,2.76,2.63,4.13Zm-19.98-161.4c2.01,6.21,3.77,12.02,5.85,17.72.39,1.07,1.98,2.32,3.09,2.4,4.04.29,8.12.11,12.27.11-1.91-10.53-12.68-20.98-21.2-20.23Zm56.37,169.37c-2.1-1.8-3.56-2.69-4.54-3.96-2.74-3.55-5.1-2.97-8.79-.81-3.17,1.86-7.47,1.9-11.32,2.43-1.62.23-3.36-.34-6.53-.73,4.91,6.61,10.83,9.13,16.39,12.1.46.24,1.38.03,1.88-.3,4.1-2.72,8.15-5.51,12.9-8.74Zm-112.52-133.05c-4.02,1.46-6.78,4.57-6.18,8.21,1.27,7.76,3.69,15.33,5.67,23.09,3.03-7.03,5.78-13.27,8.36-19.59.34-.84.16-2.33-.39-3.03-2.34-2.97-4.91-5.76-7.46-8.68Zm67.85,101.26c-.97-7.28-1.93-14.47-3.07-23.03-4.69,4.04-8.21,6.96-11.57,10.06-.54.5-.77,1.91-.48,2.63,1.76,4.39,3.71,8.7,5.7,13.27,3.1-.96,5.89-1.83,9.42-2.93Zm-6.86-195.87c6.83-7.21,10.7-14.9,11.09-25.42-7.04,4.14-13.39,7.88-20.06,11.8,3.06,4.65,5.83,8.86,8.96,13.62Zm59.56,125.03c-.13-.48-.26-.96-.39-1.44,4.79-2.98,9.25-7.16,14.46-8.6,5.43-1.49,11.6-.33,17.43-.33-.3-3.6-2.19-5.78-6.44-6.25-3.43-.38-6.74-1.74-10.15-2.42-1.32-.26-3.37-.39-4.09.37-4.86,5.15-9.46,10.56-14.43,16.21,1.32.9,2.46,1.68,3.61,2.45Zm-24.27-128.73c1.86-6.49,3.47-11.82,4.83-17.21.21-.82-.49-2.25-1.22-2.85-4.18-3.46-12.04-2.78-15.35,1.37-.63.79-.96,2.69-.46,3.36,3.64,4.86,7.53,9.54,12.2,15.34Zm-89,308.95c7.65,9.44,22.05,8.38,27.51-1.42-3.67-1.67-7.52-5.02-10.92-4.6-5.56.68-10.83,3.79-16.6,6.03Zm46.24-78.13c-6.8-7.27-13.94-10-18.41-7.79-4.11,2.02-6.93,8.61-5.85,14.46,7.84-2.15,15.62-4.29,24.26-6.67Zm59.81-70.2c7.76-.54,14.25-.98,22.4-1.55-5.62-6.62-10.45-12.31-15.29-18-.52.25-1.04.5-1.56.74-1.75,5.94-3.51,11.88-5.55,18.81Zm-57.52-50.02c-6.57,6.34-17.66,5.7-21.42,15.28,3.98.41,8.06,1.95,11.35.92,5.87-1.84,11.27-5.22,17.36-8.2-2.37-2.6-4.66-5.11-7.29-8Zm-31.23,155.54c1.88,1.5,2.76,2.72,3.86,2.99,5.76,1.45,11.57,2.76,17.41,3.85.67.12,2.41-1.48,2.36-2.19-.28-4.14-.94-8.25-1.53-12.8-4.57,1.2-7.99,1.82-11.2,3.01-3.38,1.26-6.55,3.06-10.9,5.14Zm-27.29-211.19c2.72-3.38,5.32-6.38,7.63-9.59.7-.97,1.3-2.94.8-3.7-3.15-4.79-6.62-9.36-10.03-14.07-4.83,6.13-3.81,22.22,1.6,27.36Zm100.87,107.66c3.02-.5,5.11-1.22,7.14-1.09,4.22.27,5.82-1.96,6.67-5.62,1.01-4.34,1.87-8.8,3.64-12.84,1.91-4.35-.04-6.03-3.75-7.65-4.47,8.88-8.86,17.61-13.69,27.21Zm-82.28-154.79c-1.28-4.88-2.19-9.07-3.57-13.09-.35-1.04-2.15-2.2-3.3-2.22-1.91-.02-3.88.71-5.73,1.37-3.24,1.14-4.94,2.88-2.89,6.64,2.03,3.73,3.56,7.74,5.35,11.73,3.68-1.61,6.94-3.03,10.14-4.43Zm75.02,177.5c.87-6.4,1.7-12.51,2.57-18.88-6.39,1.58-12.17,3-17.98,4.44,3.4,9.79,7.89,14,15.41,14.44Zm-56.01,12.08c4.68-3.6,7.99-6.04,11.15-8.67.71-.6,1.37-1.99,1.18-2.82-1.22-5.52-9.54-9.75-14.77-7.52-1.01.43-2.51,1.92-2.35,2.56,1.29,5.16,2.92,10.22,4.79,16.46Zm51.53-172.01c1.4,2.34,2.11,4.68,3.69,5.86,1.81,1.35,4.95,2.89,6.52,2.17,3.1-1.42,7.98-4.62,7.75-6.57-.62-5.24-3.54-10.21-5.55-15.28-.57-.03-1.14-.06-1.71-.08-.35,7.19-4.49,11.39-10.71,13.9Zm-18.83,140.81l1.31-1.69c-2.46-4.42-4.45-9.19-7.54-13.11-1.85-2.35-5.17-4.25-8.65-1.09-2.15,1.95-4.78,3.37-8.44,5.89,8.52,3.66,15.92,6.83,23.31,10.01Zm-14.98-196.65c6.99,1.41,12.99,2.62,19.11,3.85-.02-6.3-.88-12.02-7.27-14.69-1.52-.63-4.49-.59-5.28.38-2.51,3.08-4.31,6.75-6.55,10.45Zm34.59,304.96c5.47-.25,2.51-5.62,4.09-8.32,1.27-2.18-5.37-6.79-10.87-6.33-2.16.18-4.71,3.48-5.88,5.93-1.73,3.64,6.07,7.18,12.66,8.72Zm-54.18-154.1c-4.48-1.2-8.98-2.41-13.54-3.63-4.49,6.45-4.54,13.31,1.24,18.65,4.07-4.98,8.19-10.01,12.3-15.03Zm76.75,59.46c.73.37,1.46.74,2.19,1.1,5.94-5.66,11.87-11.32,17.81-16.98-.27-.53-.54-1.06-.81-1.58-5,.32-10,.6-14.99,1.03-.57.05-1.42.96-1.54,1.58-.97,4.93-1.79,9.89-2.65,14.84Zm-16.64-46.8c-.91-2.65-1.34-6.72-2.56-6.98-6.16-1.3-10.73-4.65-15.13-8.8-.76-.72-3.48.17-4.95.95-.45.24-.24,3.01.51,3.94,1.75,2.17,3.79,4.27,6.12,5.79,4.48,2.93,8.9,6.43,16.02,5.09Zm-73.98,38.68c.94-1.61,1.66-2.7,2.24-3.85,3.17-6.27,2.48-8.54-3.64-12.05-2.3-1.32-4.6-2.63-6.99-3.75-.76-.36-2.2-.48-2.63-.04-.68.7-1.3,2.17-1,2.97,2.37,6.42,5.36,12.48,12.03,16.73Zm24.07-41.5c-7.13-2.5-11.79.45-16.46,3.77-5.7,4.06-5.84,6.49.63,9.27,1.98.85,5.94-.57,7.78-2.26,3.06-2.83,5.13-6.73,8.06-10.78Zm111.98,18.28c-4.57,3.59-9.12,7.17-13.5,10.62,5.87,2.2,11,4.13,16.16,6.07,4.29-7.36,3.49-12.68-2.65-16.69Zm-31.24-104.32c.22-5.17,2.17-10.93.16-13.19-3.36-3.81-9.35-3.04-14.42-1.24-1.5,10.51,7.73,10.1,14.26,14.43Zm-42.57,45.03c-3.4,3-6.45,5.69-9.49,8.38-.37.33-.97.63-1.04,1.03-.26,1.42-.88,3.1-.38,4.27,1.5,3.55,9.98,4.04,13.33.71,1.12-1.11,2.4-3.22,2.05-4.4-1.01-3.37-2.84-6.49-4.47-9.99Zm-58.38,173.69c7.6-2.88,13.92-5.28,20.25-7.68.11-.49.22-.98.33-1.48-5.62-2.21-11.25-4.42-17.76-6.97-1.03,5.92-1.85,10.6-2.82,16.13Zm133.84-93.6c-5.99-4.8-11.02-6.83-16.47-6.22-.38,5.57-.72,10.57-1.17,17.05,6.06-3.72,11.37-6.98,17.64-10.82Zm-64.83,116.29c-.84-3.54-1.21-7.65-7.09-9.09-4.91-1.2-9.41-4.1-13.61-6.02-2.11,1.63-4.62,3.57-6.95,5.38,9.7,3.41,18.72,6.59,27.65,9.73Zm-69.78-372.6l.41-1.25c-1.78-.77-3.51-1.98-5.36-2.23-11.14-1.55-16.77,7.17-12.09,18.82.59,1.47,2.38,2.45,3.61,3.66.3-1.69,1.15-3.51.81-5.05-1.81-8.15,1.94-13.23,10.38-13.67.75-.04,1.5-.18,2.24-.28Zm89.7,210.03c.77-.2,1.54-.41,2.31-.61.79-4.97,1.67-9.94,2.29-14.93.11-.91-.83-2.82-1.24-2.8-2.71.1-5.75-.05-8.01,1.15-2.5,1.33-4,4.22-2.13,7.25,2.1,3.41,4.5,6.64,6.77,9.95Zm-64.89-109.33c-8.21-4.63-16.2-5.09-24.73-3.83,4.1,11.02,14.73,9.79,24.73,3.83Zm13.81,130.58c4.17,6.74,9.76,8,14.98,9.78.52.18,1.91-.54,1.97-.98.36-2.51,1.29-5.46.36-7.49-.9-1.96-3.82-4.19-5.85-4.18-3.52.01-7.04,1.66-11.46,2.87Zm53.24,103.5c8.2,1.46,15.3,5.8,23.44,1.74-7.77-10.55-13.18-11-23.44-1.74Zm-73.86-275.55c-4.36.2-7.86-.64-10.1.67-5.32,3.1-10.58,4.39-17.22,2.36,1.58,3.54,1.48,7.36,6.15,7.05,2.46-.16,4.91-.56,7.37-.79,5.66-.53,9.77-3.4,13.8-9.29Zm12.24,129.1c1.28.38,2.7,1.22,4.03,1.09,2.57-.26,5.38-.6,7.48-1.89.79-.48.16-3.77-.3-5.67-.58-2.4-1.77-4.64-2.45-7.02-.88-3.1-2.68-3.39-4.39-2.55-1.5,5.5-2.82,10.35-4.37,16.03Zm15.37-123.97c-.12-.89-.23-1.77-.35-2.66-5.25-.3-10.5-.59-15.75-.89-.38,3.84-.78,7.69-1.12,11.53-.02.24.32.51,1.05,1.58,5.36-3.17,10.77-6.37,16.18-9.57Zm23.81,145.65c-.88-4.3-1.5-8.17-2.47-11.94-1.21-4.67-3.78-5.2-7.35-1.72-.95.92-2.32,1.65-2.79,2.76-.56,1.33-1.05,3.65-.36,4.37,3.29,3.42,6.75,6.91,12.97,6.53Zm-64.24-204.91c-3.68,4.76-6.84,8.84-10.01,12.95,7.15,2.57,14.94-.82,18.26-8.22-2.85-1.63-5.75-3.3-8.24-4.73Zm10.97,280.69c6.37,7.67,8.59,8.15,16.39,3.41-1.66-3.89-3.34-7.84-5.24-12.3-4.26,3.4-7.71,6.14-11.15,8.88Zm79.64,32.13q6.73,5.67,12.21.26c1.88-1.87,3.72-3.79,5.45-5.79,1.39-1.61,2.59-3.38,3.87-5.08-.34-.34-.67-.68-1.01-1.02-7.89,1.63-13.8,6.86-20.52,11.63Zm-61-228.12c-2.6-3.87-4.71-7.15-7.01-10.28-.44-.6-1.79-1.04-2.54-.84-5.48,1.45-10.91,3.08-16.35,4.65-.1.31-.21.62-.31.92,8.3,1.76,16.6,3.51,26.21,5.55Zm-60.85,17.94c2.39-3.22,6.23-6.1,5.93-8.46-.56-4.49-3.48-8.68-5.55-13.28-5.6,5.95-5.76,12.3-.39,21.74Zm13.24,127.66c5,2.58,8.9,4.6,12.92,6.67,1.3-3.22,2.44-6.04,3.67-9.07-2.32-2.06-4.59-4.07-6.98-6.19-3.31,2.95-6.09,5.43-9.61,8.58Zm113.1,88.59c-3.24-1.29-6.45-3.8-8.27-3.03-4.34,1.84-8.03,5.24-12.28,8.21,7.63,4.58,12.42,3.41,20.54-5.18Zm-54.76-34.22c-3.05,2.17-8.4-.75-8.43,5.14-.04,7.56,4.01,11.46,10.73,11.1-.72-5.05-1.43-10.1-2.3-16.23Zm-42.56-231.9c-7.88-1.17-11.03-10.31-19.51-11.94,4.14,13.63,9.84,17.1,19.51,11.94Zm62.92,353.86c.19.3.38.59.57.89,1.19-.39,2.42-.7,3.57-1.18,5.62-2.36,9.55-6.48,11.68-12.11.53-1.41.21-3.69-.66-4.9-.75-1.05-3.1-1.86-4.25-1.44-.93.35-1.13,2.68-1.65,4.13-.83,2.31-1.25,4.9-2.57,6.88-1.88,2.81-4.43,5.18-6.69,7.73Zm-39.8-163.24c-3.75-3.43-7.3-4.86-11.69-1.52-1.32,1-3.47,1.01-5.27,1.27-5.82.87-6.74,3.22-3.2,7.92,6.64-2.53,13.22-5.03,20.16-7.67Zm19.94-63.35c4.46-5.18,9.03-8.03,11.88-13.33h-16.45c1.48,4.31,2.76,8.05,4.57,13.33Zm54.5,196.56c-6.27.36-12,.68-17.94,1.02.36.95.41,1.54.73,1.82,1.09.99,2.27,1.88,3.44,2.79q8.7,6.76,13.03-2.99c.26-.58.36-1.23.75-2.64Zm-100.37-241.76c7.86,8.62,16.84,9.63,21.17,0h-21.17Zm34.32,92.25c.31-.44.62-.88.93-1.32-3.04-3.51-6-7.1-9.21-10.45-.64-.66-2.87-.93-3.33-.43-1.97,2.14-3.55,4.63-5.42,7.21,6.42,1.88,11.72,3.43,17.03,4.99Zm-11.97-212.02c-.63,2.97-1.09,4.61-1.32,6.29-.54,3.91-1.11,7.82-1.35,11.74-.08,1.3.82,2.66,1.27,4,1.63-.94,4.25-1.53,4.72-2.88,2.17-6.19,1.32-12.23-3.32-19.15Zm2.41,400.43c8.6-1.32,16.83-2.59,25.38-3.9-5.65-6.89-20.13-4.59-25.38,3.9Zm-12.49-184.95c6.62,6.1,14.55,4.78,16.19-2.43-9.12-3.98-13.12-3.43-16.19,2.43Zm46.56,107.97c4.25,1.54,7.23,3.15,10.37,3.54,1.6.2,4.23-1.43,4.97-2.93.63-1.27-.29-4.03-1.45-5.25-1.12-1.17-3.83-2.13-5.13-1.56-2.79,1.24-5.12,3.52-8.77,6.2Zm2.62-170.54c1.68,4.25,3.15,7.99,4.99,12.65,3.35-4.23,6.11-7.72,8.88-11.21-.2-.48-.4-.96-.61-1.43h-13.26Zm28.73,103.7c1.81,7.09,7.19,4.11,11.07,4.31,4.95.25,5.56-3.94,7.68-8.24-6.98,1.47-12.75,2.67-18.75,3.93Zm-111.62-127.12c2.65-2.86,4.3-4.85,6.17-6.61,2.01-1.89,4.24-3.55,7.63-6.35-3.06-1.16-6.51-3.33-7.29-2.61-3.07,2.84-5.52,6.47-7.71,10.09-.58.96.59,2.98,1.19,5.48Zm60.85,43.79c-.53.65-2.41,2.52-2.22,2.77,2.15,2.75,4.37,5.62,7.2,7.53.63.43,4.66-2.39,5.4-4.36.92-2.46-5.04-5.97-10.38-5.94Zm-26.49-137.37c7.44,1.13,9.31-.8,10.73-10.63-5.7-1.53-8.21.9-10.73,10.63Zm-32.55,266.56v11.09c7.06-1.14,13.92-2.25,20.77-3.36,0-.5,0-1,0-1.5-7.06-.59-15.26,2.78-20.78-6.23Zm94.9,42.82c2.48-3.15,5.69-6.15,5.25-6.87-1.5-2.42-4.32-4.02-6.63-5.94-1.2,2.48-2.95,4.88-3.35,7.49-.18,1.17,2.35,2.76,4.73,5.33Zm-73.16-360.55c-4.46-2.1-7.74-2.6-10.46.37-2.82,3.07-2,6.5.1,11.35,3.75-4.24,6.83-7.72,10.36-11.72Zm18.72,375.56c-.44-.31-.89-.63-1.33-.94-4.27,2.59-8.53,5.19-13.77,8.37,3.56,1.83,6.08,3.12,9.14,4.69,2.13-4.33,4.04-8.23,5.96-12.12Zm67.38-98.87c-1.83-4.83-5.49-5.75-11.01-3.55-3.51,1.4-5.74,3.16-3.16,7.24,4.73-1.23,9.27-2.41,14.17-3.69Zm-24.4-162.4c-2.41-6.41-4.05-6.96-13.34-5.04v5.04h13.34Zm-18.9,6.75c-.36-.44-.71-.87-1.07-1.31-4.73,3.66-9.45,7.33-15.22,11.8,9.06.83,15.17-3.67,16.29-10.49Zm33.38,50.5c-3.64,4.45-6.85,8.38-10.06,12.3.27.32.54.63.82.95,4.82-2.68,9.65-5.35,15.27-8.47-2.4-1.9-4.01-3.19-6.02-4.78Zm-47.87-2.44c-.59-.35-1.17-.7-1.76-1.05-2.95,1.44-5.9,2.89-9.47,4.63,2.96,2.75,5.17,4.8,8.38,7.79,1.13-4.53,1.99-7.95,2.84-11.37Zm65.68,31l1.17.54c2.84-3.42,5.67-6.84,9.06-10.93-3.32-.81-5.49-1.33-7.96-1.93-.8,4.35-1.53,8.33-2.27,12.32Zm-3.37-33.98c-4.76.38-8.61.68-13.15,1.04,5.86,7.87,7.99,7.68,13.15-1.04Zm-68.48-114.68c.48.36.96.71,1.44,1.07,2.38-3.9,4.76-7.81,7.26-11.91-5.68-1.04-7.63,1.57-8.7,10.85Zm59.12,279.12l-.44-1.49c-3.28-.16-6.6-5.53-10.19.92,1.89,1.72,3.65,3.32,5.53,5.04,1.99-1.74,3.55-3.1,5.1-4.47Zm-93.53-141.08c2.64,2.03,4.03,3.09,5.85,4.49,2.09-3.16,3.93-5.96,5.77-8.76-.34-.44-.68-.88-1.02-1.32-3.15,1.66-6.31,3.32-10.6,5.59Zm21.23-9.09c4.35.62,8.1,1.16,12.3,1.77-5.64-7.96-7.2-8.21-12.3-1.77Zm42.74,58.86c-3.32-1.13-5.8-1.98-9.72-3.32,2.2,4.17,3.66,6.92,5.55,10.5,1.57-2.7,2.61-4.5,4.17-7.18Zm-31.68-45.19l.81,1.13c2.73-1.55,5.47-3.1,8.85-5.01-1.79-1.57-2.92-2.57-4.32-3.8-2.02,2.91-3.68,5.29-5.34,7.68Zm-6.53,44.43c-.01-.51-.03-1.02-.04-1.53-1.76-.99-3.51-1.98-5.6-3.15-1.14,2.34-2.02,4.17-3.65,7.54,4.06-1.25,6.68-2.06,9.29-2.86Zm25.06-144.28c-3.46,6.81-2.66,8.09,4.83,8.53-1.6-2.83-3.01-5.32-4.83-8.53Zm-14.83,195.91c3.4,2.32,5.65,3.87,9.14,6.25-.55-3.57-.88-5.68-1.28-8.25-2.53.64-4.48,1.14-7.86,2Zm47.31-80.61c.18,2.45.29,3.81.44,5.86,2.48-.86,4.41-1.53,7.74-2.68-3.41-1.32-5.31-2.06-8.18-3.18Z"/>
  <path class="cls-2" d="m644.54,653.96c-1.34-7.95-6.23-9.2-11.58-9.76-4.93-.51-9.86-.98-15.48-1.53,5.35-8.54-1.41-11.32-7.32-14.81,1.61-1.92,2.81-3.37,3.75-4.49,5.4,3.19,10.18,6.54,15.38,9,15.95,7.52,30.24-.02,33.61-17.39,1.89-9.76,1.82-19.09-4.69-27.46-2.24-2.88.55-4.23,2.56-5.12,2.4-1.06,5.03-1.93,7.61-2.12,1.13-.08,3.43,1.75,3.43,2.72,0,6.72.39,13.61-.95,20.12-2.89,14.03-7.83,27.46-16.07,39.35-2.67,3.85-6.24,7.06-10.24,11.5Z"/>
  <path class="cls-2" d="m550.86,286.27c-4.63-3.52-10.13-4.9-12.96-10.61-1.98-3.99-9.91-4.38-15.65-1.96-5.77,2.44-8.44,6.67-8.1,12.95.05.99.2,2,.48,2.95,1.75,5.98,4.04,11.61-1,17.67-1.64,1.97-.66,6.86.29,10.07,1.21,4.09.71,6.99-4.01,10.03-1.37-3.96-3.48-7.6-3.76-11.38-.8-10.61-1.33-21.28-1.05-31.91.28-10.64,10.61-19.26,23.03-20.14,7.25-.51,14.32.03,20.29,4.93,5.32,4.37,6.35,10.58,2.45,17.39Z"/>
  <path class="cls-2" d="m641.94,397.91c11.01,5.35,14.85,14.54,17.05,25.3,3.57,17.46-.83,32.27-13.24,44.79-1,1.01-2.98,1.46-4.51,1.46-7.15-.02-10.85-5.46-15.44-10.41,4.52-4.57,6.96-11.48,15.26-11.73,2.67-.08,5.4-1.63,7.9-2.91,9.43-4.84,11.38-13.67,4.59-21.87-2.73-3.3-5.95-6.42-9.51-8.74-3.39-2.22-4.42-4.41-3.23-8.2.73-2.31.74-4.84,1.13-7.69Z"/>
  <path class="cls-2" d="m563.14,411.74c-9.59-13.68-22.07-16.22-36.83-7.13-3.11,1.91-4.98,1.74-6.86-1.43-1.69-2.85-3.89-5.4-5.7-8.18-4.08-6.26-3.34-8.43,4.35-12.16.96,2.02,1.91,4.06,2.89,6.08,3.07,6.3,9.28,9.18,16.15,7.8,8.41-1.7,16.87-3.15,25.29-4.78,1.26-.24,2.83-.48,3.62-1.32,4.83-5.13,9.81-2.35,14.74-.47,3.02,1.16,3.43,8.3.54,10.18-5.9,3.84-11.92,7.49-18.2,11.42Z"/>
  <path class="cls-2" d="m525.16,696.41c-11.5,2.36-20.03-2.46-21.58-13.33-1.3-9.07-1.33-17.7-.01-26.69,1.03-7.02.22-14.3.59-21.44.16-3.12,1.23-6.2,1.88-9.29.66-.02,1.31-.05,1.97-.07.95,2.97,2.3,5.88,2.77,8.92,1.5,9.67,2.64,19.4,3.97,29.1.32,2.29.97,4.55,1.22,6.84.37,3.35.84,6.74.66,10.08-.31,5.76,1.02,8.67,8.52,15.89Z"/>
  <path class="cls-2" d="m616.16,621.53c4.54-6.17,8.57-6.9,14.33-4.77,5.15,1.91,11,2.33,16.57,2.54,2.16.08,5.22-1.75,6.31-3.62.64-1.09-1.4-4.4-2.98-5.96-2.43-2.42-5.49-4.2-8.75-6.59,4.56-4.82,9-9.52,13.69-14.47,6.39,7.55,6.43,15.97,4.92,24.66-.31,1.78-.88,3.53-1.43,5.26-3.74,11.73-14.31,17.01-25.64,12.24-5.83-2.46-11.17-6.05-17.01-9.29Z"/>
  <path class="cls-2" d="m638.37,392.01c-4.98,0-9.55.2-14.07-.12-1.37-.1-3.24-1.34-3.84-2.57-2.76-5.65-5.18-11.47-7.65-17.26-.44-1.02-.94-2.31-.69-3.29,1.65-6.51,3.51-12.98,5.34-19.63,12.47,8.83,24.34,28.98,20.91,42.88Z"/>
  <path class="cls-2" d="m595.92,448.11c-3.26-5.11-6.04-9.82-9.18-14.28-3.79-5.38-8.84-8.77-15.63-9.66-1.74-.23-3.22-2.48-5.9-4.7,3.68-1.09,5.51-1.61,7.32-2.17,6.07-1.87,9.69-6.03,11.68-11.97.5-1.48,1.94-3.57,3.15-3.73,4.59-.58,9.28-.76,13.9-.5,2.45.14,3.38,1.93,1.43,4.22-11.02,12.98-11.8,17.18-3.75,31.71,2.89,5.22.83,7.78-3.03,11.09Z"/>
  <path class="cls-2" d="m672.45,574.93c-5.47-6.54-4.69-12.24-1.67-18.05,1.38-2.65,3.05-5.17,4.13-7.93.76-1.94,1.75-4.8.91-6.19-4.04-6.66.48-12.93.1-19.29-.21-3.48-2.21-6.87-3.43-10.28-.41-1.14-1.4-2.32-1.25-3.37.79-5.88,1.85-11.72,2.81-17.55,3.65.72,8.33,5.52,8.7,11.23.68,10.57,1.59,21.25.76,31.76-.81,10.29-3.42,20.48-5.78,30.59-.7,3-3.18,5.59-5.28,9.09Z"/>
  <path class="cls-2" d="m568.73,592.44c-2.86-1.68-5.36-3.25-7.94-4.66-10.49-5.72-17.81-2.42-20.91,9.22-.63,2.38-1.73,6.4-2.97,6.54-4.95.56-10.15.41-14.97-.73-1.11-.26-2.39-6.2-1.26-8.21,2.16-3.83,5.42-7.93,9.25-9.75,8.19-3.88,17-6.5,25.65-9.34,1.45-.48,3.53.26,5.07.96,1.78.81,3.26,2.28,4.94,3.35,6.27,3.99,6.44,4.56,3.13,12.61Z"/>
  <path class="cls-2" d="m580.58,675.82c-3.79,2.43-7.32,5.44-11.4,7.17-10.47,4.45-21.03,8.8-31.83,12.32-9.27,3.01-18.73-5.83-17.02-14.75,4.12.98,8.35,1.64,12.34,3,7.16,2.43,12.24-.5,16.41-5.83,2.04-2.62,4.04-3.31,7.51-3.05,7.72.6,15.52.19,23.29.19.23.32.47.64.7.96Z"/>
  <path class="cls-2" d="m586.73,620.66c-8.26,0-16.31.02-24.36-.03-.59,0-1.2-.46-1.76-.77-6.39-3.56-12.77-7.13-19.48-10.23-1.59-2.85.98-3.61,3.37-4.33,7.88-2.38,15.78-4.71,23.69-6.99.7-.2,1.85-.3,2.26.1,6.38,6.21,13.92,11.51,16.48,20.74.08.29-.07.64-.19,1.51Z"/>
  <path class="cls-2" d="m513.73,618.86c1.74,8.75,6.87,13.93,15.4,15.74.67.14,1.71,2.02,1.45,2.59-4.54,10.12-.23,18.63,4.67,27.06.15.26.1.63.22,1.48-5.21,1.95-10.52,3.93-16.57,6.2-.96-6.91-1.69-13.62-2.87-20.25-1.62-9.08-3.69-18.08-5.32-27.17-.32-1.76.48-3.72.77-5.59.75-.02,1.5-.03,2.25-.05Z"/>
  <path class="cls-2" d="m553.69,671.58c5.57-7.06,4.7-16.32,12.4-21.07,1.06-.65,2.49-1.44,3.56-1.22,4.86.97,9.74,2.01,14.45,3.52,5.23,1.67,6,3.95,5.01,11.13-.63,4.6-2.67,7.1-7.72,7.14-7.12.05-14.23.67-21.35.96-1.59.07-3.19-.21-6.35-.45Z"/>
  <path class="cls-2" d="m540.65,698.08c2.1-.86,3.64-1.62,5.25-2.14,14.62-4.72,28.34-11,40.22-21.1,2.44-2.07,6.75-2.04,10.23-2.76,1.93-.4,3.97-.28,5.93-.57,6.04-.88,7.44.55,5.3,6.33-2.83,7.65-9.87,11.36-15.96,15.85-.51.38-2.3-.25-2.97-.93-6.99-7.11-14.8-5.33-22.5-1.88-3.26,1.46-6.21,3.84-8.95,6.21-3.84,3.32-10.7,4.14-16.56.99Z"/>
  <path class="cls-2" d="m563.76,320.84c2.66-8.82,1.9-15.78-1.92-22.22-1.68-2.83-.59-4.31,1.74-5.62,5.33-3.02,10.75-2.87,16.22-.38,6.36,2.9,10.39,7.91,13.51,14.59-8.32,1.34-14.12,5.97-19.77,11.28-1.87,1.76-5.68,1.46-9.77,2.36Z"/>
  <path class="cls-2" d="m593.91,520.2c2.05-5.72,2.25-11.57-3.39-14.94-5.84-3.48-11.48-.53-16.65,2.73-3.82-4.39-7.5-8.62-11.96-13.73,3.61-1.5,7.41-2.46,10.49-4.5,5.33-3.54,8.86-2.06,12.9,2.26,4.89,5.23,10.64,9.54,18.3,10.17.82.07,1.96.73,2.29,1.43,3.11,6.62-3.95,16.92-11.98,16.58Z"/>
  <path class="cls-2" d="m551.84,291.69c4.15,2.24,4.35,4.76,3.28,8.62-1.4,5.02-1.62,10.4-2.12,15.64-.35,3.73-2.16,4.63-5.66,4.11-10.47-1.56-17.78-7.65-23.5-16.04-.6-.88-.82-3-.29-3.46,1.14-.97,3.19-2.06,4.33-1.64,9.81,3.6,17.41.15,23.95-7.23Z"/>
  <path class="cls-2" d="m637.51,496.5c3.5-6.51,8.46-9.89,15.48-9.51,4.12.22,8.22,1,12.29,1.72,1.05.18,2.26.83,2.92,1.65,2.99,3.71,3.41,13.83.68,17.66-.58.81-2.26,1.63-3.07,1.36-9.71-3.27-19.71-5.94-28.3-12.88Z"/>
  <path class="cls-2" d="m623.13,419.7c.62,8.15-2.1,16.72-6.38,24.98-1.65,3.18-4.22,4.41-6.73,2.43-2.27-1.78-6.57-3.48-3.5-8.23,6.26-9.71,7.46-19.98,2.67-30.77-.52-1.17-.65-3.47.02-3.99,1.07-.84,3.07-1.11,4.49-.79,9.16,2.04,9.23,2.26,9.44,16.38Z"/>
  <path class="cls-2" d="m590.62,621.79c-2.06-9.83-8.03-16.23-14.66-22.05-3.36-2.95-5.8-5.67-3.05-10.32.71-1.2.77-2.77,1.16-4.31,9.85,2.91,16.93,8.69,22.21,16.86,1.35,2.09,2.54,4.39,4.3,6.08,3.11,2.99,2.99,4.98-.84,7.18-3.07,1.77-5.79,4.13-9.12,6.55Z"/>
  <path class="cls-2" d="m587.61,341.44c11.5-7.61,14.66-17.71,10.69-30.12,12.61,2.67,21,18.96,16.58,31.49-7.65-4.34-14.53-2.81-20.78,3.8-1.87-1.49-3.6-2.87-6.48-5.17Z"/>
  <path class="cls-2" d="m531.69,645.66c.1-1.32.1-2.67.33-3.97.87-4.95,3.56-6.18,8.18-3.97,5.66,2.71,11.34,5.36,17.06,7.93,3.15,1.41,4.07,4.28,1.21,6.37-5.6,4.09-11.6,7.65-17.59,11.16-.7.41-3.08-.51-3.5-1.38-2.48-5.11-4.6-10.4-6.85-15.63l1.16-.51Z"/>
  <path class="cls-2" d="m563.92,448.32c-3.41,1.75-6.47,3.43-9.63,4.87-1.11.51-2.77,1-3.69.53-11.72-5.85-22.23-1.75-32.61,3.72-.88.46-1.72.98-2.59,1.45-.12.06-.32-.02-1.1-.11-5.75-9.07-6.91-19-2.63-30.19.58,1.36,1.54,2.69,1.65,4.08.11,1.41-.69,2.88-.97,4.34-1.35,7.03,2.26,11.74,9.39,10.97,9.7-1.04,19.31-3.02,28.96-4.54,5.12-.81,9.99-.77,13.23,4.88Z"/>
  <path class="cls-2" d="m645.13,558.28c1.83-4.24,3.71-8.72,9.49-10.93,5.79-2.21,11.02-5.9,17.74-9.63.08,3.48.44,6.72.11,9.89-.17,1.69-1.43,3.32-2.39,4.85-4.79,7.66-7.22,15.42-.24,23.84-2.93,1.15-5,1.97-7.7,3.03-.01-5.7,3.54-11.99-2.01-15.55-4.21-2.71-9.6-3.6-15.01-5.49Z"/>
  <path class="cls-2" d="m595.13,351.47c3.39,4.53,6.54,9.26,10.24,13.52,4.51,5.2,3.4,10.81,1.38,16.18-.93,2.47-3.76,4.36-6.04,6.11-.58.45-3-.27-3.47-1.09-3.95-6.88-8.39-13.76-7.29-22.2.53-4.08,1.97-8.04,3-12.06.73-.15,1.45-.31,2.18-.46Z"/>
  <path class="cls-2" d="m594.68,707.58c-.65-3.83-1.16-6.88-1.73-10.25,4.45-1.47,8.9-2.66,13.13-4.4,6.92-2.85,11.95-7.75,14.38-14.99,1.36-4.03-.27-8.18-4.25-8.54-6.67-.61-5.51-5.02-5.84-9.45,6.52,4.93,12.74,9.48,18.71,14.35.67.55.31,3.06-.27,4.34-5.06,11.05-13.58,18.74-24.25,24.2-3.17,1.62-6.41,3.08-9.86,4.74Z"/>
  <path class="cls-2" d="m516.64,433.58c2.05,1.24,3.69,2.31,5.41,3.24,8.23,4.45,16.42,2.75,24.47-.44,6.6-2.61,13.06-5.57,20.22-8.66,2.15,6.59,4.18,12.79,6.68,20.42-2.89-.61-5.85-.36-6.67-1.56-5.48-8.02-13.14-6.5-20.75-5.3-7.21,1.14-14.35,2.89-21.59,3.66-9.23.98-11.1-1.8-7.78-11.35Z"/>
  <path class="cls-2" d="m526.67,729.35c-5.25.31-10.66,1.2-15.98.8-7.4-.55-10.83-6.02-9.32-13.49,1.02-5.05,6.32-7.71,12.75-6.38,9.04,1.86,12.97,7.45,12.55,19.07Z"/>
  <path class="cls-2" d="m519.96,303.32c6.75,11.22,16.25,18.55,29.49,20.02.05,8.16-5.45,12.19-12.19,8.92-2.91-1.41-5.27-3.93-8.03-5.71-2.71-1.74-5.71-3.04-8.4-4.81-1.57-1.03-3.5-2.36-4.05-3.97-2.25-6.64-1.2-10.88,3.17-14.45Z"/>
  <path class="cls-2" d="m516.93,561.79c-5.59-13.3-4.74-25.36.85-38.6,2.24,3.55,3.82,6.32,5.66,8.91,1.43,2.01,2.82,4.49,4.86,5.54,3.91,2.01,2.73,4.21,1.69,7.25-2.38,6.89-7.37,11.52-13.05,16.89Z"/>
  <path class="cls-2" d="m563.38,419.71c.63,1.62,1.25,3.24,2,5.17-11.51,4.36-21.42,12.52-34.29,11.15-3.77-.4-7.44-2.32-11.02-3.85-2.42-1.04-2.41-2.92-.69-4.8,1.23-1.35,2.39-2.77,3.71-4.04,5.26-5.06,6.1-5.08,12.05-.83,1.88,1.35,3.8,2.69,5.83,3.78,6.36,3.39,12.06,2.52,17.14-2.64,1.38-1.4,2.46-3.11,3.67-4.68l1.6.74Z"/>
  <path class="cls-2" d="m569.25,386.35c-3.33,1.25-6.25,2.72-9.34,3.42-6.27,1.41-12.73,2.05-18.95,3.64-10.28,2.64-16.37-.23-19.29-10.06-.34-1.15.6-3.46,1.64-4.13,5.26-3.37,7.69-2.91,11.72,1.55,6.29,6.97,12.89,7.67,24.51,2.62q5.14-2.23,9.71,2.95Z"/>
  <path class="cls-2" d="m625.08,408.19c9.54.82,11.78,3.74,10.46,11.87-.71,4.38-.61,8.9-.89,13.35-.14,2.14-.25,4.29-.51,6.42-.57,4.58-2.93,7.14-7.83,7.03-2.26-.05-4.52.3-7.77.55,7.1-12.64,8.99-25.6,6.55-39.21Z"/>
  <path class="cls-2" d="m508.7,617.28c-9.65-13.69-6.11-34.31,9.6-51.15.42,2.32,1.15,3.87.87,5.2-2.09,9.87-4.58,19.65-6.51,29.55-.65,3.35-.5,7,.04,10.39.58,3.65-.78,5.27-3.99,6.01Z"/>
  <path class="cls-2" d="m622.2,497.43c-.29,2.45-.11,3.97-.67,5.13-4,8.18-8.13,16.29-12.29,24.39-.43.84-1.16,1.91-1.94,2.1-6.27,1.56-12.59,2.94-19.29,3.52,2.57-4.25,2.77-9.64,9.88-9.81,6.52-.16,10.13-6.42,10.08-11.86-.08-9.73,6.89-10.32,14.23-13.49Z"/>
  <path class="cls-2" d="m577.01,720.1c-9.2,7.5-18.35,15.17-30.03,18.08-3.67.91-7.89.51-11.65-.29-1.69-.36-2.87-3.16-4.28-4.85,1.4-1.1,2.66-2.46,4.23-3.23,2.52-1.23,5.26-2.02,7.87-3.09,4.78-1.96,9.02-4.17,14.94-2.38,3.92,1.19,8.97-1.19,13.46-2.18,1.88-.41,3.64-1.36,5.46-2.07Z"/>
  <path class="cls-2" d="m563.71,551.06c-.79-1.33-1.21-2.04-1.63-2.75-3.88-6.57-9.63-8.62-16.94-7.16-.9.18-1.95-.42-2.93-.66.36-.97.43-2.5,1.11-2.84,7.45-3.76,14.8-8.07,23.7-6.77,1.29.19,2.59.58,3.77,1.12,5.57,2.54,6.34,6.87,1.95,10.93-2.66,2.46-5.38,4.85-9.03,8.13Z"/>
  <path class="cls-2" d="m525.03,408.9c14.61-11.25,31.05-8.34,36.06,6.64-3.67,0-7.18.08-10.69-.02-4.48-.13-9.07-1.11-13.41-.43-5.73.9-9.07-1.47-11.96-6.19Z"/>
  <path class="cls-2" d="m636.76,444.83c.72-10,1.4-19.48,2.08-29.03,6.84,1.39,15.33,10.4,15.31,16.35,0,2.08-1.1,4.6-2.52,6.16-3.96,4.35-9.44,5.52-14.88,6.52Z"/>
  <path class="cls-2" d="m627.99,466.23c-9.14,1.89-13.82,5.15-12.47,10.1,1.5,5.48,5.12,10.38,8.41,16.68-1.92.08-4.08.54-6.08.18-8.06-1.44-12.32-6.16-11.97-14.62.04-.94-.5-1.91-.83-2.84-1.13-3.12-1.07-4.97,3.09-5.94,3.57-.84,7.04-3.05,9.99-5.37,4.06-3.2,7-3.01,9.87,1.83Z"/>
  <path class="cls-2" d="m619.95,587.79c4.69-5.06,9.01-9.84,13.52-14.44.66-.68,2.61-1.09,3.26-.63,4.02,2.84,7.83,5.96,11.95,9.16-6.69,4.41-12.79,8.53-19.02,12.43-.63.4-2.25-.14-3.03-.74-2.32-1.8-4.45-3.84-6.67-5.8Z"/>
  <path class="cls-2" d="m615.21,587.06c-4.25,4.21-8.89,5.7-14.38,4.91-6.36-.92-8.01-2.96-6.42-9.25.63-2.49,1.92-5.06,3.62-6.96,2.04-2.29,4.67-5.22,7.32-5.52,4.27-.48,2.86,4.62,4.45,7,1,1.5,1.59,3.27,2.46,4.87.86,1.59,1.84,3.11,2.95,4.97Z"/>
  <path class="cls-2" d="m510.96,358.36c-3.27-7.97-3.41-16.05-.28-24.42,7.81,2.84,13.61,7.66,16.42,15.28.5,1.35-1.34,4.75-2.86,5.41-4,1.72-8.43,2.45-13.28,3.73Z"/>
  <path class="cls-2" d="m587.22,623.74c-2.25,8.03-7.63,12.55-13.17,16.65-1.38,1.02-4.37-.24-6.63-.27-4.03-.06-2.48-2.86-2.67-4.98-.31-3.59-.89-7.16-1.43-11.4h23.9Z"/>
  <path class="cls-2" d="m540.21,546.78c1.88,5.21,3.83,10.39,5.54,15.66.25.76-.4,2.42-1.1,2.8-5.52,2.99-11.41,4.66-17.69,3.31-.97-.21-2.44-2.41-2.2-3.28,2.3-8.43,6.33-15.59,15.45-18.49Z"/>
  <path class="cls-2" d="m532.81,350.86c1.53-.22,3.06-.53,4.6-.64,7.47-.56,13.67-3.26,18.1-9.7.87-1.26,3.2-1.51,4.85-2.23.44,1.55,1.15,3.09,1.26,4.66.15,2.11-.78,4.45-.16,6.35,1.46,4.51-.81,5.59-4.47,6.81-6.83,2.27-13.5,3.17-20.14-.16-1.71-.86-3.05-2.44-4.56-3.68.18-.47.36-.94.54-1.41Z"/>
  <path class="cls-2" d="m554.12,572.47c-12.9,5.11-27.77,6.43-36.38,19.5-.48-.24-.96-.47-1.44-.71,2.01-6.48,3.92-12.99,6.19-19.38.21-.6,2.65-.39,4.05-.58,5.65-.74,11.55-.74,16.9-2.44,6.44-2.05,6.24-2.67,10.68,3.6Z"/>
  <path class="cls-2" d="m573.82,644.8c9.37,1.88,18.73,3.27,27.35,8.51,5.81,3.54,6.93,8.16,6.64,14.64-5.42.56-10.78,1.11-16.64,1.72.34-2.15.58-3.86.89-5.56,1.66-8.98-1.01-13.04-9.84-15.08-2.98-.69-5.92-1.56-8.88-2.35.16-.63.31-1.25.47-1.88Z"/>
  <path class="cls-2" d="m549.13,456.43c-4.61,4.75-8.24,8.3-14.36,9.01-3.65.42-6.99,3.45-10.72,5.45.05.01-.35.03-.57-.17-8.86-7.98-8.89-9.4,2.26-13.6,5.53-2.08,11.85-2.2,17.85-2.81,1.53-.16,3.21,1.18,5.54,2.12Z"/>
  <path class="cls-2" d="m624.97,658.43c-3.61-.5-7.03-.55-10.12-1.57-1.62-.54-4.05-3.26-3.73-4.16.89-2.53,2.98-6.53,4.65-6.56,6.91-.11,13.86.84,20.73,1.86,1.45.22,3.87,2.65,3.66,3.56-.43,1.9-2.01,4.44-3.68,4.98-3.73,1.21-7.8,1.35-11.51,1.89Z"/>
  <path class="cls-2" d="m576.94,319.69c3.71-5.08,9.1-7.78,15.09-9.41.84-.23,2.51.68,3.04,1.53,4.71,7.55,1.86,19.16-6.07,24.33-1.33-3.33-2.11-6.99-4.11-9.76-1.91-2.65-5.1-4.37-7.95-6.68Z"/>
  <path class="cls-2" d="m647.2,562.28c.82.11,2.66-.06,4.06.65,3.08,1.55,7.72,3.03,8.43,5.49.93,3.23-.85,7.59-2.47,10.98-.46.96-4.87,1.08-6.69.12-3.46-1.83-6.48-4.59-9.45-7.22-1.3-1.15-3.19-3.7-2.79-4.33,1.38-2.2,3.59-3.91,5.64-5.62.49-.41,1.61-.06,3.27-.06Z"/>
  <path class="cls-2" d="m617.42,586.21c-2.28-4.88-4.12-8.36-5.55-12-2.78-7.06-2.53-7.37,5.06-9.04,5.06-1.11,10.44-3.55,14.06,2.6.58.98.76,3.04.14,3.74-4.1,4.69-8.47,9.15-13.71,14.7Z"/>
  <path class="cls-2" d="m585.07,564.22c-1.61-8.28-3.28-15.72-4.32-23.25-.21-1.51,1.98-3.35,3.41-5.56,3.06,5.1,4.94,9.97,8.32,13.35,3.2,3.2,7.97,4.84,13.06,7.74-7.1,2.67-13.61,5.13-20.48,7.72Z"/>
  <path class="cls-2" d="m517.52,508.96c-1.32-11.15-.28-20.55,4.76-29.16.73-1.25,3.21-2.66,4.27-2.28,2.14.76,4.29,2.11,2.63,5.58-2.97,6.2-4.02,12.63,1.21,19.16-4.31,2.24-8.26,4.3-12.88,6.7Z"/>
  <path class="cls-2" d="m665.37,513.51c-4.78,3.45-9.26,6.68-14.03,10.12-2.95-4.06-5.43-7.69-8.15-11.14-2.66-3.37-5.56-6.55-8.92-10.47.72-.28,2.5-1.66,3.49-1.23,8.99,3.92,17.84,8.16,27.61,12.72Z"/>
  <path class="cls-2" d="m582.53,700.84c-7.29,4.66-14.58,9.33-21.88,13.98-.41.26-.88.47-1.35.62-2.05.69-4.11,1.34-6.17,2.01-.31-2.56-1.29-5.26-.77-7.63.99-4.5,3.05-7.79,8.95-7.95,6.82-.19,13.59-1.96,20.38-3.05.28.67.56,1.35.84,2.02Z"/>
  <path class="cls-2" d="m648.89,528.36c4.66,9.77.97,18.66-8.36,21.06-5.01,1.29-10.18,1.95-15.28,2.9-.18-.46-.36-.91-.55-1.37,7.94-7.41,15.88-14.83,24.19-22.59Z"/>
  <path class="cls-2" d="m530.43,357.18c1.99,1.21,4.23,2.16,5.93,3.69,4.61,4.14,9.77,6.37,16.02,7.07,5.71.64,11.27,2.55,17.72,4.1-3.43,4.56-5.79,5.73-10,3.38-7.02-3.92-14.97-4.35-22.77-3.32-4,.53-5.47-1.12-6.34-4.3-.85-3.09-1.55-6.22-2.31-9.33.58-.43,1.17-.86,1.75-1.28Z"/>
  <path class="cls-2" d="m665.13,468.22c.03-6.64,3.96-11.45,9.08-11.52,4.56-.06,8.5,3.94,8.49,8.63,0,6.67-4.74,10.65-12.28,10.67-6.25.02-4.49-4.84-5.29-7.79Z"/>
  <path class="cls-2" d="m590.38,347.76c.14.74.97,2.31.51,3.04-7.97,12.47-3.5,23.86,2.79,35.15.32.58.6,1.18.87,1.79.06.13-.02.31-.04.47-6.85,2.12-8.12,1.31-11.21-4.87-1.89-3.79-4.72-7.12-6.62-9.9,4.54-8.51,8.99-16.84,13.7-25.67Z"/>
  <path class="cls-2" d="m605.32,407.93c5.97,8.98,5.18,20.73-2,29.82-9.32-12.09-9.33-24.67,2-29.82Z"/>
  <path class="cls-2" d="m559.04,469.53c-7.1,13.9-12.39,17.44-24.02,9.16,4.48-11.76,10.39-14.07,24.02-9.16Z"/>
  <path class="cls-2" d="m622.31,530.48c-.45,5.54-.75,11.08-1.4,16.58-.43,3.62-8.91,7.19-11.78,5.02-.72-.55-1.17-1.94-1.13-2.93.09-2.79.5-5.57.77-8.36.99-10.14,3.23-11.82,13.55-10.31Z"/>
  <path class="cls-2" d="m534.61,612.73c0,6.68.11,11.88-.11,17.06-.03.83-1.45,2.27-2.28,2.31-6.57.31-14.25-6.18-15.04-12.8-.13-1.13,1.12-3.29,2.09-3.54,5.18-1.29,10.48-2.12,15.33-3.03Z"/>
  <path class="cls-2" d="m589.6,699.32c3.08,5.82,2.07,10.37-3.3,12.78-7.23,3.25-14.61,6.21-22.02,9.03-1.98.75-4.34.5-6.52.71-.14-.43-.28-.86-.42-1.29,10.75-7.07,21.5-14.14,32.27-21.23Z"/>
  <path class="cls-2" d="m589.68,589.02c-.9-1.37-2.28-2.63-2.63-4.13-1.12-4.82-1.97-9.72-2.64-14.63-.14-1,.71-2.84,1.54-3.16,6.14-2.34,12.4-4.4,20.39-7.16-.86,3.22-.78,6.11-1.96,6.78-8.56,4.91-13.66,11.79-14.71,22.29Z"/>
  <path class="cls-2" d="m569.7,427.62c8.52-.74,19.29,9.7,21.2,20.23-4.15,0-8.23.17-12.27-.11-1.11-.08-2.7-1.33-3.09-2.4-2.07-5.7-3.84-11.52-5.85-17.72Z"/>
  <path class="cls-2" d="m626.07,597c-4.75,3.23-8.8,6.02-12.9,8.74-.49.33-1.42.54-1.88.3-5.56-2.97-11.48-5.49-16.39-12.1,3.17.39,4.9.95,6.53.73,3.85-.54,8.15-.58,11.32-2.43,3.68-2.16,6.04-2.73,8.79.81.98,1.26,2.44,2.15,4.54,3.96Z"/>
  <path class="cls-2" d="m513.55,463.94c2.55,2.92,5.12,5.71,7.46,8.68.55.7.74,2.19.39,3.03-2.58,6.31-5.33,12.56-8.36,19.59-1.98-7.76-4.4-15.33-5.67-23.09-.6-3.64,2.16-6.75,6.18-8.21Z"/>
  <path class="cls-2" d="m581.4,565.2c-3.53,1.1-6.32,1.96-9.42,2.93-1.99-4.57-3.94-8.88-5.7-13.27-.29-.72-.06-2.13.48-2.63,3.36-3.1,6.88-6.02,11.57-10.06,1.14,8.57,2.1,15.75,3.07,23.03Z"/>
  <path class="cls-2" d="m574.54,369.33c-3.13-4.76-5.91-8.97-8.96-13.62,6.66-3.92,13.02-7.66,20.06-11.8-.4,10.52-4.26,18.21-11.09,25.42Z"/>
  <path class="cls-2" d="m634.1,494.36c-1.15-.78-2.29-1.56-3.61-2.45,4.97-5.65,9.57-11.06,14.43-16.21.72-.76,2.77-.63,4.09-.37,3.41.67,6.72,2.04,10.15,2.42,4.25.47,6.14,2.64,6.44,6.25-5.83,0-12-1.16-17.43.33-5.21,1.43-9.67,5.62-14.46,8.6.13.48.26.96.39,1.44Z"/>
  <path class="cls-2" d="m609.83,365.63c-4.67-5.8-8.56-10.48-12.2-15.34-.5-.66-.17-2.57.46-3.36,3.31-4.15,11.17-4.83,15.35-1.37.73.6,1.43,2.03,1.22,2.85-1.36,5.39-2.97,10.72-4.83,17.21Z"/>
  <path class="cls-2" d="m520.83,674.57c5.77-2.23,11.04-5.35,16.6-6.03,3.39-.41,7.24,2.93,10.92,4.6-5.46,9.8-19.87,10.86-27.51,1.42Z"/>
  <path class="cls-2" d="m567.07,596.45c-8.64,2.37-16.42,4.51-24.26,6.67-1.08-5.85,1.74-12.44,5.85-14.46,4.46-2.2,11.61.52,18.41,7.79Z"/>
  <path class="cls-2" d="m626.88,526.24c2.05-6.93,3.8-12.87,5.55-18.81.52-.25,1.04-.5,1.56-.74,4.83,5.69,9.67,11.38,15.29,18-8.14.56-14.63,1.01-22.4,1.55Z"/>
  <path class="cls-2" d="m569.36,476.22c2.63,2.88,4.92,5.39,7.29,8-6.1,2.98-11.49,6.36-17.36,8.2-3.29,1.03-7.37-.51-11.35-.92,3.76-9.58,14.85-8.93,21.42-15.28Z"/>
  <path class="cls-2" d="m538.13,631.76c4.34-2.08,7.52-3.89,10.9-5.14,3.21-1.19,6.63-1.81,11.2-3.01.59,4.55,1.25,8.66,1.53,12.8.05.72-1.69,2.32-2.36,2.19-5.84-1.09-11.65-2.39-17.41-3.85-1.11-.28-1.98-1.49-3.86-2.99Z"/>
  <path class="cls-2" d="m510.84,420.57c-5.4-5.14-6.43-21.23-1.6-27.36,3.41,4.71,6.88,9.28,10.03,14.07.5.76-.1,2.73-.8,3.7-2.32,3.21-4.91,6.21-7.63,9.59Z"/>
  <path class="cls-2" d="m611.71,528.23c4.83-9.6,9.22-18.33,13.69-27.21,3.71,1.62,5.66,3.3,3.75,7.65-1.77,4.04-2.63,8.5-3.64,12.84-.85,3.67-2.44,5.89-6.67,5.62-2.03-.13-4.11.6-7.14,1.09Z"/>
  <path class="cls-2" d="m529.43,373.43c-3.19,1.39-6.46,2.82-10.14,4.43-1.79-3.99-3.31-8-5.35-11.73-2.05-3.76-.35-5.49,2.89-6.64,1.86-.66,3.82-1.39,5.73-1.37,1.14.01,2.94,1.18,3.3,2.22,1.37,4.03,2.28,8.22,3.57,13.09Z"/>
  <path class="cls-2" d="m604.46,550.93c-7.52-.44-12-4.65-15.41-14.44,5.81-1.43,11.59-2.86,17.98-4.44-.87,6.38-1.7,12.48-2.57,18.88Z"/>
  <path class="cls-2" d="m548.44,563.01c-1.87-6.23-3.5-11.3-4.79-16.46-.16-.64,1.34-2.13,2.35-2.56,5.23-2.23,13.55,2.01,14.77,7.52.18.83-.47,2.23-1.18,2.82-3.15,2.63-6.47,5.07-11.15,8.67Z"/>
  <path class="cls-2" d="m599.97,391.01c6.22-2.52,10.36-6.71,10.71-13.9.57.03,1.14.06,1.71.08,2.01,5.07,4.93,10.04,5.55,15.28.23,1.95-4.65,5.15-7.75,6.57-1.57.72-4.71-.82-6.52-2.17-1.58-1.18-2.29-3.52-3.69-5.86Z"/>
  <path class="cls-2" d="m581.14,531.81c-7.4-3.18-14.8-6.35-23.31-10.01,3.66-2.51,6.29-3.94,8.44-5.89,3.48-3.15,6.79-1.26,8.65,1.09,3.09,3.92,5.08,8.7,7.54,13.11l-1.31,1.69Z"/>
  <path class="cls-2" d="m566.16,335.16c2.24-3.71,4.04-7.37,6.55-10.45.79-.97,3.76-1.01,5.28-.38,6.4,2.67,7.25,8.38,7.27,14.69-6.12-1.23-12.11-2.44-19.11-3.85Z"/>
  <path class="cls-2" d="m600.75,640.13c-6.58-1.53-14.39-5.08-12.66-8.72,1.16-2.45,3.72-5.75,5.88-5.93,5.5-.46,12.14,4.15,10.87,6.33-1.58,2.7,1.39,8.07-4.09,8.32Z"/>
  <path class="cls-2" d="m546.57,486.02c-4.11,5.02-8.23,10.05-12.3,15.03-5.78-5.35-5.73-12.2-1.24-18.65,4.56,1.22,9.07,2.43,13.54,3.63Z"/>
  <path class="cls-2" d="m623.32,545.48c.87-4.95,1.69-9.91,2.65-14.84.12-.63.97-1.53,1.54-1.58,4.99-.44,9.99-.71,14.99-1.03.27.53.54,1.06.81,1.58-5.94,5.66-11.87,11.32-17.81,16.98-.73-.37-1.46-.74-2.19-1.1Z"/>
  <path class="cls-2" d="m606.68,498.68c-7.12,1.33-11.54-2.17-16.02-5.09-2.32-1.52-4.37-3.62-6.12-5.79-.75-.93-.95-3.7-.51-3.94,1.48-.78,4.19-1.67,4.95-.95,4.4,4.15,8.96,7.5,15.13,8.8,1.23.26,1.65,4.33,2.56,6.98Z"/>
  <path class="cls-2" d="m532.71,537.36c-6.67-4.25-9.66-10.3-12.03-16.73-.29-.8.33-2.27,1-2.97.43-.45,1.87-.32,2.63.04,2.39,1.12,4.7,2.44,6.99,3.75,6.12,3.51,6.8,5.78,3.64,12.05-.58,1.15-1.3,2.24-2.24,3.85Z"/>
  <path class="cls-2" d="m556.78,495.86c-2.92,4.05-5,7.95-8.06,10.78-1.83,1.7-5.8,3.11-7.78,2.26-6.47-2.78-6.33-5.21-.63-9.27,4.67-3.33,9.33-6.27,16.46-3.77Z"/>
  <path class="cls-2" d="m668.75,514.14c6.14,4.02,6.95,9.33,2.65,16.69-5.15-1.94-10.29-3.86-16.16-6.07,4.39-3.45,8.94-7.03,13.5-10.62Z"/>
  <path class="cls-2" d="m637.52,409.82c-6.53-4.33-15.76-3.92-14.26-14.43,5.07-1.8,11.07-2.57,14.42,1.24,2,2.27.05,8.02-.16,13.19Z"/>
  <path class="cls-2" d="m594.95,454.85c1.63,3.49,3.45,6.62,4.47,9.99.36,1.18-.93,3.3-2.05,4.4-3.35,3.32-11.82,2.84-13.33-.71-.49-1.17.12-2.85.38-4.27.07-.39.67-.7,1.04-1.03,3.04-2.69,6.09-5.38,9.49-8.38Z"/>
  <path class="cls-2" d="m536.57,628.55c.97-5.53,1.78-10.21,2.82-16.13,6.51,2.56,12.13,4.76,17.76,6.97-.11.49-.22.98-.33,1.48-6.33,2.4-12.65,4.8-20.25,7.68Z"/>
  <path class="cls-2" d="m670.41,534.95c-6.26,3.84-11.58,7.1-17.64,10.82.44-6.48.79-11.48,1.17-17.05,5.45-.61,10.48,1.43,16.47,6.22Z"/>
  <path class="cls-2" d="m605.58,651.24c-8.92-3.14-17.94-6.31-27.65-9.73,2.33-1.8,4.84-3.75,6.95-5.38,4.19,1.92,8.69,4.83,13.61,6.02,5.88,1.43,6.26,5.55,7.09,9.09Z"/>
  <path class="cls-2" d="m535.8,278.64c-.75.1-1.49.24-2.24.28-8.44.43-12.19,5.51-10.38,13.67.34,1.55-.51,3.36-.81,5.05-1.23-1.21-3.02-2.19-3.61-3.66-4.67-11.65.96-20.36,12.09-18.82,1.85.26,3.58,1.47,5.36,2.23l-.41,1.25Z"/>
  <path class="cls-2" d="m625.5,488.67c-2.27-3.31-4.67-6.54-6.77-9.95-1.87-3.03-.37-5.92,2.13-7.25,2.26-1.2,5.3-1.04,8.01-1.15.4-.02,1.35,1.89,1.24,2.8-.63,5-1.5,9.96-2.29,14.93-.77.2-1.54.41-2.31.61Z"/>
  <path class="cls-2" d="m560.61,379.34c-9.99,5.96-20.63,7.18-24.73-3.83,8.52-1.26,16.51-.8,24.73,3.83Z"/>
  <path class="cls-2" d="m574.42,509.92c4.42-1.21,7.94-2.86,11.46-2.87,2.03,0,4.95,2.22,5.85,4.18.93,2.04,0,4.98-.36,7.49-.06.43-1.45,1.15-1.97.98-5.22-1.79-10.8-3.04-14.98-9.78Z"/>
  <path class="cls-2" d="m627.65,613.41c10.26-9.26,15.67-8.81,23.44,1.74-8.14,4.06-15.24-.28-23.44-1.74Z"/>
  <path class="cls-2" d="m553.79,337.87c-4.03,5.89-8.13,8.76-13.8,9.29-2.46.23-4.91.63-7.37.79-4.67.31-4.57-3.51-6.15-7.05,6.64,2.03,11.91.74,17.22-2.36,2.24-1.31,5.73-.47,10.1-.67Z"/>
  <path class="cls-2" d="m566.03,466.97c1.55-5.68,2.87-10.53,4.37-16.03,1.71-.84,3.51-.55,4.39,2.55.68,2.38,1.87,4.62,2.45,7.02.46,1.9,1.09,5.19.3,5.67-2.1,1.29-4.91,1.63-7.48,1.89-1.32.13-2.75-.72-4.03-1.09Z"/>
  <path class="cls-2" d="m581.4,343c-5.41,3.2-10.81,6.39-16.18,9.57-.73-1.07-1.07-1.34-1.05-1.58.35-3.85.74-7.69,1.12-11.53,5.25.3,10.5.59,15.75.89.12.89.23,1.77.35,2.66Z"/>
  <path class="cls-2" d="m605.21,488.64c-6.22.38-9.68-3.11-12.97-6.53-.69-.72-.2-3.04.36-4.37.47-1.11,1.84-1.84,2.79-2.76,3.57-3.48,6.14-2.95,7.35,1.72.97,3.78,1.6,7.64,2.47,11.94Z"/>
  <path class="cls-2" d="m540.97,283.73c2.49,1.43,5.39,3.09,8.24,4.73-3.31,7.4-11.11,10.8-18.26,8.22,3.18-4.11,6.33-8.19,10.01-12.95Z"/>
  <path class="cls-2" d="m551.94,564.42c3.45-2.74,6.89-5.49,11.15-8.88,1.9,4.45,3.58,8.41,5.24,12.3-7.8,4.74-10.03,4.26-16.39-3.41Z"/>
  <path class="cls-2" d="m631.57,596.55c6.72-4.77,12.63-10,20.52-11.63.34.34.67.68,1.01,1.02-1.28,1.7-2.48,3.47-3.87,5.08-1.73,2-3.57,3.93-5.45,5.79q-5.46,5.43-12.21-.26Z"/>
  <path class="cls-2" d="m570.57,368.43c-9.61-2.03-17.91-3.79-26.21-5.55.1-.31.21-.62.31-.92,5.45-1.57,10.88-3.2,16.35-4.65.74-.2,2.09.24,2.54.84,2.31,3.13,4.41,6.42,7.01,10.28Z"/>
  <path class="cls-2" d="m509.72,386.37c-5.37-9.44-5.21-15.79.39-21.74,2.07,4.6,4.99,8.79,5.55,13.28.29,2.37-3.54,5.24-5.93,8.46Z"/>
  <path class="cls-2" d="m522.95,514.03c3.53-3.15,6.31-5.63,9.61-8.58,2.39,2.12,4.65,4.13,6.98,6.19-1.23,3.03-2.37,5.85-3.67,9.07-4.02-2.07-7.92-4.09-12.92-6.67Z"/>
  <path class="cls-2" d="m636.05,602.62c-8.12,8.59-12.91,9.76-20.54,5.18,4.25-2.98,7.93-6.37,12.28-8.21,1.81-.77,5.02,1.75,8.27,3.03Z"/>
  <path class="cls-2" d="m581.3,568.4c.87,6.13,1.58,11.19,2.3,16.23-6.72.36-10.77-3.53-10.73-11.1.03-5.89,5.38-2.97,8.43-5.14Z"/>
  <path class="cls-2" d="m538.74,336.5c-9.67,5.16-15.37,1.7-19.51-11.94,8.48,1.63,11.62,10.77,19.51,11.94Z"/>
  <path class="cls-2" d="m601.66,690.35c2.26-2.56,4.81-4.92,6.69-7.73,1.33-1.98,1.75-4.56,2.57-6.88.52-1.45.72-3.78,1.65-4.13,1.14-.43,3.49.39,4.25,1.44.87,1.21,1.19,3.5.66,4.9-2.13,5.62-6.07,9.74-11.68,12.11-1.15.48-2.38.79-3.57,1.18-.19-.3-.38-.59-.57-.89Z"/>
  <path class="cls-2" d="m561.86,527.12c-6.93,2.64-13.52,5.15-20.16,7.67-3.55-4.69-2.62-7.05,3.2-7.92,1.8-.27,3.95-.27,5.27-1.27,4.39-3.34,7.94-1.91,11.69,1.52Z"/>
  <path class="cls-2" d="m581.8,463.77c-1.81-5.28-3.09-9.03-4.57-13.33h16.45c-2.84,5.3-7.41,8.16-11.88,13.33Z"/>
  <path class="cls-2" d="m636.3,660.33c-.4,1.42-.5,2.06-.75,2.64q-4.32,9.74-13.03,2.99c-1.16-.9-2.34-1.8-3.44-2.79-.32-.29-.36-.87-.73-1.82,5.94-.34,11.67-.66,17.94-1.02Z"/>
  <path class="cls-2" d="m535.93,418.57h21.17c-4.33,9.63-13.31,8.62-21.17,0Z"/>
  <path class="cls-2" d="m570.25,510.81c-5.31-1.55-10.61-3.11-17.03-4.99,1.88-2.58,3.46-5.07,5.42-7.21.46-.5,2.69-.23,3.33.43,3.21,3.35,6.16,6.94,9.21,10.45-.31.44-.62.88-.93,1.32Z"/>
  <path class="cls-2" d="m558.28,298.79c4.64,6.92,5.49,12.96,3.32,19.15-.47,1.35-3.09,1.94-4.72,2.88-.45-1.33-1.35-2.7-1.27-4,.24-3.93.82-7.84,1.35-11.74.23-1.68.69-3.32,1.32-6.29Z"/>
  <path class="cls-2" d="m560.69,699.22c5.26-8.5,19.73-10.79,25.38-3.9-8.55,1.32-16.78,2.58-25.38,3.9Z"/>
  <path class="cls-2" d="m548.2,514.27c3.07-5.86,7.07-6.41,16.19-2.43-1.64,7.21-9.57,8.53-16.19,2.43Z"/>
  <path class="cls-2" d="m594.76,622.24c3.64-2.68,5.98-4.96,8.77-6.2,1.29-.57,4.01.39,5.13,1.56,1.16,1.22,2.07,3.98,1.45,5.25-.75,1.5-3.38,3.13-4.97,2.93-3.13-.39-6.12-2-10.37-3.54Z"/>
  <path class="cls-2" d="m597.38,451.7h13.26c.2.48.4.96.61,1.43-2.77,3.49-5.53,6.99-8.88,11.21-1.84-4.66-3.31-8.39-4.99-12.65Z"/>
  <path class="cls-2" d="m626.1,555.41c6-1.26,11.76-2.47,18.75-3.93-2.11,4.3-2.73,8.49-7.68,8.24-3.89-.2-9.26,2.78-11.07-4.31Z"/>
  <path class="cls-2" d="m514.48,428.29c-.6-2.5-1.77-4.52-1.19-5.48,2.19-3.63,4.63-7.25,7.71-10.09.78-.72,4.23,1.45,7.29,2.61-3.39,2.8-5.62,4.46-7.63,6.35-1.87,1.76-3.53,3.75-6.17,6.61Z"/>
  <path class="cls-2" d="m575.33,472.08c5.34-.03,11.3,3.48,10.38,5.94-.73,1.97-4.77,4.79-5.4,4.36-2.83-1.91-5.05-4.78-7.2-7.53-.2-.25,1.69-2.13,2.22-2.77Z"/>
  <path class="cls-2" d="m548.83,334.7c2.52-9.72,5.03-12.16,10.73-10.63-1.42,9.83-3.29,11.76-10.73,10.63Z"/>
  <path class="cls-2" d="m516.29,601.27c5.52,9.02,13.72,5.65,20.78,6.23,0,.5,0,1,0,1.5-6.86,1.11-13.71,2.22-20.77,3.36v-11.09Z"/>
  <path class="cls-2" d="m611.19,644.09c-2.38-2.56-4.91-4.15-4.73-5.33.4-2.61,2.15-5.01,3.35-7.49,2.31,1.92,5.12,3.52,6.63,5.94.45.72-2.77,3.72-5.25,6.87Z"/>
  <path class="cls-2" d="m538.03,283.54c-3.54,4-6.61,7.48-10.36,11.72-2.1-4.85-2.91-8.28-.1-11.35,2.72-2.97,5.99-2.47,10.46-.37Z"/>
  <path class="cls-2" d="m556.75,659.1c-1.91,3.89-3.83,7.78-5.96,12.12-3.06-1.57-5.58-2.86-9.14-4.69,5.23-3.18,9.5-5.78,13.77-8.37.44.31.89.63,1.33.94Z"/>
  <path class="cls-2" d="m624.13,560.23c-4.9,1.28-9.45,2.46-14.17,3.69-2.58-4.08-.35-5.84,3.16-7.24,5.52-2.2,9.18-1.28,11.01,3.55Z"/>
  <path class="cls-2" d="m599.73,397.83h-13.34v-5.04c9.29-1.92,10.93-1.37,13.34,5.04Z"/>
  <path class="cls-2" d="m580.83,404.59c-1.12,6.83-7.23,11.32-16.29,10.49,5.77-4.47,10.5-8.14,15.22-11.8.36.44.71.87,1.07,1.31Z"/>
  <path class="cls-2" d="m614.21,455.09c2.01,1.6,3.63,2.88,6.02,4.78-5.63,3.12-10.45,5.8-15.27,8.47-.27-.32-.54-.63-.82-.95,3.21-3.93,6.42-7.85,10.06-12.3Z"/>
  <path class="cls-2" d="m566.34,452.65c-.86,3.42-1.71,6.85-2.84,11.37-3.22-2.99-5.43-5.04-8.38-7.79,3.56-1.74,6.52-3.19,9.47-4.63.59.35,1.17.7,1.76,1.05Z"/>
  <path class="cls-2" d="m632.02,483.65c.73-3.99,1.47-7.97,2.27-12.32,2.47.6,4.64,1.13,7.96,1.93-3.39,4.09-6.23,7.51-9.06,10.93l-1.17-.54Z"/>
  <path class="cls-2" d="m628.64,449.67c-5.16,8.72-7.29,8.91-13.15,1.04,4.54-.36,8.39-.66,13.15-1.04Z"/>
  <path class="cls-2" d="m560.16,334.98c1.07-9.28,3.02-11.89,8.7-10.85-2.5,4.11-4.88,8.01-7.26,11.91-.48-.36-.96-.71-1.44-1.07Z"/>
  <path class="cls-2" d="m619.28,614.1c-1.55,1.36-3.11,2.72-5.1,4.47-1.89-1.72-3.65-3.32-5.53-5.04,3.59-6.45,6.92-1.08,10.19-.92l.44,1.49Z"/>
  <path class="cls-2" d="m525.75,473.02c4.29-2.26,7.45-3.92,10.6-5.59.34.44.68.88,1.02,1.32-1.84,2.8-3.69,5.59-5.77,8.76-1.82-1.4-3.2-2.46-5.85-4.49Z"/>
  <path class="cls-2" d="m546.97,463.93c5.1-6.45,6.66-6.19,12.3,1.77-4.21-.6-7.95-1.14-12.3-1.77Z"/>
  <path class="cls-2" d="m589.71,522.79c-1.55,2.67-2.6,4.48-4.17,7.18-1.89-3.58-3.35-6.33-5.55-10.5,3.92,1.34,6.4,2.19,9.72,3.32Z"/>
  <path class="cls-2" d="m558.03,477.6c1.66-2.39,3.32-4.78,5.34-7.68,1.4,1.23,2.53,2.22,4.32,3.8-3.38,1.92-6.11,3.46-8.85,5.01l-.81-1.13Z"/>
  <path class="cls-2" d="m551.5,522.03c-2.62.81-5.23,1.61-9.29,2.86,1.63-3.37,2.52-5.19,3.65-7.54,2.08,1.17,3.84,2.16,5.6,3.15.01.51.03,1.02.04,1.53Z"/>
  <path class="cls-2" d="m576.57,377.75c1.82,3.21,3.23,5.7,4.83,8.53-7.49-.44-8.29-1.72-4.83-8.53Z"/>
  <path class="cls-2" d="m561.74,573.66c3.38-.86,5.33-1.36,7.86-2,.4,2.57.73,4.69,1.28,8.25-3.48-2.38-5.74-3.93-9.14-6.25Z"/>
  <path class="cls-2" d="m609.05,493.05c2.87,1.11,4.78,1.86,8.18,3.18-3.33,1.15-5.26,1.82-7.74,2.68-.15-2.04-.26-3.41-.44-5.86Z"/>
</svg>